<svg width="94" height="148" viewBox="0 0 94 148" fill="none" xmlns="http://www.w3.org/2000/svg">
<path fill-rule="evenodd" clip-rule="evenodd" d="M35.2933 92.6046C35.2933 92.6046 12.4677 100.039 11.6301 100.353C10.7925 100.667 12.1536 102.343 12.1536 102.971C12.2583 103.599 16.7606 101.4 18.1218 102.028C20.2159 102.971 14.7712 107.264 15.6089 110.3C16.2371 112.813 17.4936 115.641 17.8077 116.897C18.2265 118.154 20.9488 118.886 20.2159 116.269C17.4936 106.531 33.5133 103.39 41.5755 102.133L35.2933 92.6046Z" fill="#1A1A1A"/>
<path fill-rule="evenodd" clip-rule="evenodd" d="M42.4132 59.098C42.3085 58.9932 64.7152 78.2596 63.2494 89.3587C62.5164 93.9659 56.3389 96.5836 49.5331 100.667C43.1462 104.541 37.2827 111.138 35.6075 110.615C32.1522 109.567 33.9322 103.809 32.6757 100.144C31.4193 96.4789 27.1264 93.9659 28.1734 91.2435C29.3252 88.5211 46.9155 86.5316 46.2873 85.4845L29.6393 61.0874C29.6393 61.0874 39.6909 57.632 42.4132 59.098Z" fill="#F99A03"/>
<path fill-rule="evenodd" clip-rule="evenodd" d="M59.4803 87.5786C59.4803 87.4739 59.4803 87.3692 59.3756 87.3692C59.3756 87.3692 59.3756 87.2645 59.2709 87.2645C59.3756 84.9609 58.7474 82.6573 57.8051 80.4585C58.0145 80.2491 58.1192 80.0396 58.1192 79.7255C58.1192 79.5161 58.0145 79.3067 57.9098 79.202C57.8051 79.0972 57.4909 78.9925 57.2815 79.0973C57.1768 79.0973 57.0721 79.0973 57.0721 79.0973C56.1298 77.3172 55.0827 75.6419 54.0357 73.9665C54.1404 73.8618 54.1404 73.7571 54.1404 73.6524C54.2451 73.1289 53.7216 72.71 53.3028 72.71H53.1981L53.0934 72.6053C52.0463 71.0347 50.7899 69.6735 49.4287 68.3123C49.5334 68.2076 49.7428 67.9981 49.7428 67.7887C49.8475 67.5793 49.7428 67.2652 49.6381 67.0558C49.4287 66.8463 49.1146 66.8463 48.8005 66.8463C48.5911 66.8463 48.4864 66.9511 48.277 67.0558C46.8111 65.5898 45.3453 64.2286 43.8794 62.658L43.9841 62.5533C44.2982 62.0298 43.7747 61.2968 43.1465 61.4015C43.0418 61.4015 42.9371 61.5062 42.8324 61.5062C42.0994 60.6685 41.3665 59.7262 40.7383 58.6791C40.5289 58.6791 40.3194 58.6791 40.11 58.6791C40.7383 59.8309 41.5759 60.9827 42.4135 61.925C42.3088 62.1345 42.3088 62.4486 42.5182 62.658C42.7276 62.8674 42.9371 62.8674 43.2512 62.8674C44.717 64.438 46.2876 65.904 47.8582 67.4746C47.8582 67.5793 47.8582 67.7887 47.8582 67.8934C47.9629 68.3123 48.4864 68.6264 48.9052 68.5217C49.7428 69.4641 50.5805 70.4064 51.4181 71.3488C51.7322 71.8724 52.151 72.2912 52.4651 72.8147C52.3604 72.9194 52.2557 73.1289 52.151 73.3383C52.0463 73.8618 52.5698 74.3854 53.0934 74.0712C53.1981 74.0712 53.1981 74.0712 53.3028 74.0712C54.3498 75.7466 55.3969 77.4219 56.2345 79.0973C56.0251 79.202 55.9204 79.4114 56.0251 79.6208C56.1298 79.9349 56.2345 80.249 56.5486 80.3538C56.5486 80.3538 56.6533 80.4585 56.758 80.4585C56.8627 80.4585 56.8627 80.4585 56.9674 80.4585C57.7004 82.3432 58.3286 84.6468 58.3286 86.9504C57.7003 87.2645 57.4909 87.9975 57.9098 88.521C58.0145 88.6257 58.0145 88.6257 58.1192 88.7304C58.0145 89.5681 57.7003 90.4058 57.2815 91.034C56.758 91.9764 56.1298 92.7094 55.3969 93.3376C55.2922 93.2329 55.0827 93.2329 54.978 93.3376C54.8733 93.2329 54.5592 93.2329 54.4545 93.4423V93.547C54.3498 93.6517 54.2451 93.7565 54.2451 93.8612C54.2451 93.9659 54.2451 94.1753 54.2451 94.28C52.6745 95.4318 50.8946 96.2695 49.2193 97.2118C46.2876 98.7825 43.4606 100.458 40.7383 102.343C39.1677 103.39 37.4924 104.541 35.9219 105.903C35.7125 105.693 35.5031 105.693 35.1889 105.903C34.8748 106.112 34.7701 106.531 34.8748 106.95C34.3513 107.369 33.9325 107.892 33.5137 108.311C33.6184 108.73 33.7231 109.044 33.9325 109.358C34.3513 108.834 34.7701 108.311 35.2936 107.892C35.2936 107.997 35.3983 107.997 35.3983 108.102C35.6078 108.311 36.0266 108.416 36.236 108.206C36.4454 107.997 36.5501 107.473 36.4454 107.159C36.4454 107.054 36.4454 106.95 36.3407 106.74C39.1677 104.227 42.6229 102.133 45.8688 100.248C48.5911 98.6778 52.151 97.2118 54.8733 95.1177C54.978 95.1177 55.0827 95.1177 55.1875 95.1177C55.2922 95.1177 55.2922 95.1177 55.2922 95.013C55.6063 94.9082 55.8157 94.5941 55.711 94.28C57.2815 92.9188 58.4333 91.2434 58.7474 89.1493C58.7474 89.0446 58.7474 88.9399 58.8521 88.8352C59.0615 88.7304 59.2709 88.521 59.2709 88.2069C59.6897 87.9975 59.6897 87.7881 59.4803 87.5786Z" fill="#FD7B01"/>
<path fill-rule="evenodd" clip-rule="evenodd" d="M54.7687 82.3432C54.8734 82.3432 54.8734 82.3432 54.7687 82.3432C54.9781 81.8197 54.7687 81.5056 54.3499 81.2961C53.5123 79.3067 52.2558 77.4219 50.9994 75.7466C51.1041 75.6419 51.2088 75.4325 51.2088 75.223C51.2088 75.0136 51.1041 74.9089 50.8947 74.8042C50.6853 74.8042 50.5806 74.8042 50.3711 74.8042C50.057 74.2807 49.6382 73.8618 49.3241 73.3383C48.6959 72.3959 47.9629 71.4535 47.23 70.5112C47.3347 70.4064 47.4394 70.3017 47.4394 70.197C47.5441 69.9876 47.4394 69.7782 47.3347 69.5688C47.1253 69.3594 46.8112 69.3594 46.6018 69.4641H46.4971C45.6595 68.417 44.8218 67.3699 44.0889 66.3228C43.6701 65.7993 43.356 65.3804 42.9371 64.8569C42.9371 64.6475 42.9371 64.4381 42.7277 64.3333V64.2286C42.7277 63.8098 42.3089 63.6004 41.9948 63.7051C41.9948 63.7051 41.9948 63.7051 41.8901 63.7051C40.7384 62.1345 39.5866 60.4591 38.9584 58.6791C38.749 58.6791 38.5396 58.6791 38.3302 58.7838C38.8537 60.7732 39.9007 62.5533 41.1572 64.2286C40.7384 64.8569 41.1572 65.6946 41.8901 65.6946C41.9948 65.6946 42.0995 65.6946 42.2042 65.5898C43.356 67.0558 44.6124 68.5217 45.7642 69.9876C45.6595 70.0923 45.6595 70.3017 45.6595 70.5112C45.7642 70.8253 46.183 71.1394 46.4971 71.0347C47.5441 72.3959 48.4865 73.7571 49.4288 75.1183C49.4288 75.1183 49.3241 75.1183 49.3241 75.223C49.2194 75.3277 49.1147 75.6419 49.2194 75.7466C49.4288 76.0607 49.8476 76.2701 50.1617 76.1654C50.5806 76.7937 50.8947 77.4219 51.3135 77.9455C51.9417 78.9925 52.5699 80.0396 53.1982 81.2961C53.0935 81.2961 53.0935 81.4008 52.9888 81.4008C52.5699 81.715 52.6746 82.2385 53.0935 82.4479C53.3029 82.5526 53.5123 82.6573 53.8264 82.6573C54.5593 84.4374 54.8734 86.3221 54.2452 88.1022C54.0358 87.9975 53.8264 87.9975 53.7217 88.2069L53.617 88.3116C53.5123 88.3116 53.4076 88.4163 53.4076 88.521C53.4076 88.6257 53.4076 88.6257 53.4076 88.7304C53.4076 88.8352 53.4076 88.9399 53.4076 89.0446C53.4076 89.254 53.5123 89.4634 53.617 89.5681C52.1511 91.6623 49.5335 93.0235 47.4394 94.28C44.9265 95.7459 42.3089 96.8977 39.5866 98.0495C37.8066 98.8872 36.0267 99.7248 34.3514 100.772C34.2467 100.667 34.142 100.667 34.0373 100.563C33.8279 100.458 33.6185 100.667 33.5138 100.877C33.5138 100.981 33.5138 101.191 33.5138 101.4C33.3043 101.505 33.1996 101.61 32.9902 101.819C33.0949 102.238 33.0949 102.761 33.0949 103.285C33.409 103.076 33.7232 102.761 34.0373 102.552C34.142 102.657 34.2467 102.657 34.3514 102.761C34.5608 102.866 34.7702 102.866 34.8749 102.657C34.9796 102.447 34.9796 102.133 34.9796 101.924C37.8066 100.039 41.1572 98.6778 44.403 97.1071C47.5441 95.6412 52.3605 93.4423 54.4546 90.1964C54.5593 90.1964 54.7687 90.0917 54.7687 89.9869C54.9781 89.7775 54.9781 89.4634 54.9781 89.1493C55.1875 88.6257 55.397 88.1022 55.397 87.5786C55.8158 86.008 55.5017 84.1233 54.7687 82.3432Z" fill="#FD7B01"/>
<path fill-rule="evenodd" clip-rule="evenodd" d="M50.6851 83.181C50.371 80.9821 49.0098 78.8879 47.6487 76.8985C47.7534 76.7938 47.7534 76.6891 47.7534 76.5844C47.7534 76.3749 47.7534 76.0608 47.6487 75.9561C47.544 75.8514 47.2299 75.7467 47.0205 75.7467C46.9158 75.7467 46.9158 75.7467 46.8111 75.7467C46.7064 75.642 46.6017 75.4326 46.4969 75.3278C43.3558 70.616 39.5865 66.0088 37.5971 60.5639C37.4924 60.2498 37.0736 60.3545 37.1783 60.6686C38.2253 64.6476 40.8429 67.9982 43.0417 71.3489C44.0887 72.9195 45.1358 74.5949 46.1828 76.1655V76.2702C46.0781 76.6891 46.3922 77.2126 46.9158 77.2126C47.0205 77.3173 47.1252 77.5267 47.1252 77.6314C48.1722 79.3068 49.4287 80.9821 49.7428 82.8669C49.6381 82.8669 49.6381 82.8669 49.5334 82.9716C49.2193 83.181 49.2193 83.7045 49.4287 84.0187C49.5334 84.1234 49.6381 84.2281 49.8475 84.2281C49.8475 84.4375 49.8475 84.7516 49.7428 85.0657C49.0098 89.987 43.3558 92.3953 39.4818 94.4895C37.9112 95.3272 36.3406 96.1649 34.7701 96.8978C34.3513 96.5837 33.8277 96.7931 33.6183 97.2119C33.5136 97.2119 33.5136 97.3167 33.5136 97.4214V97.5261C32.8854 97.8402 32.3619 98.1543 31.7336 98.3637C31.9431 98.6779 32.1525 98.992 32.2572 99.3061C32.7807 98.992 33.3042 98.7826 33.8277 98.4684C34.0371 98.6779 34.2465 98.7826 34.456 98.7826C34.6654 98.7826 34.7701 98.5732 34.7701 98.3637C34.8748 98.259 34.9795 98.0496 35.0842 97.8402C37.0736 96.6884 39.1676 95.5366 41.157 94.4895C44.6123 92.6048 48.8004 90.6153 50.371 86.6364C50.6851 85.7987 50.7898 85.0657 50.7898 84.3328C50.8945 84.3328 50.9992 84.2281 51.1039 84.0187C51.1039 83.5998 50.8945 83.2857 50.6851 83.181Z" fill="#FD7B01"/>
<path fill-rule="evenodd" clip-rule="evenodd" d="M40.6333 87.9975C37.8063 89.987 35.3981 91.9765 32.5711 93.1282C32.4664 92.9188 32.257 92.8141 32.1523 92.7094C32.0476 92.6047 31.9429 92.7094 31.8382 92.7094C31.6288 92.5 31.3147 92.6047 31.3147 92.9188V93.0235C31.21 93.233 31.3147 93.4424 31.4194 93.5471C30.5817 93.7565 29.6394 93.9659 28.8018 94.0706C29.0112 94.3847 29.1159 94.5942 29.3253 94.9083C30.1629 94.8036 31.0005 94.6989 31.8382 94.4895C31.8382 94.5942 31.9429 94.6989 31.9429 94.8036C32.1523 95.1177 32.6758 95.013 32.6758 94.5942C32.7805 94.4895 32.8852 94.28 32.8852 94.0706C36.0264 92.8141 38.8534 90.6152 40.8428 88.3117C41.0522 88.2069 40.8427 87.7881 40.6333 87.9975Z" fill="#FD7B01"/>
<path fill-rule="evenodd" clip-rule="evenodd" d="M9.53622 34.0725C9.53622 34.0725 16.2373 50.4071 17.389 53.0248C18.5408 55.5378 19.9019 60.4591 21.5772 61.4015C23.2525 62.4486 41.9945 59.2026 42.3087 58.7838C42.4134 58.6791 42.4134 57.1084 42.3087 54.7001C46.6015 64.438 57.5955 65.3804 56.6531 51.7683C56.0249 41.4021 48.6956 31.9784 39.3769 28.523C37.0734 27.6853 34.2464 28.3136 31.8382 28.1041C30.3724 27.9994 27.7548 27.4759 27.2312 23.6017C26.7077 19.7275 20.0067 24.0205 20.0067 24.0205C20.0067 24.0205 20.4255 27.3712 20.0067 28.3136C19.4831 29.2559 8.17507 34.3867 9.53622 34.0725Z" fill="#FFB3A3"/>
<path fill-rule="evenodd" clip-rule="evenodd" d="M40.6332 122.656C40.6332 122.656 39.3767 146.53 39.3767 147.472C39.3767 148.414 41.3661 147.786 42.099 147.891C42.7272 148.1 42.3084 143.074 43.3555 142.027C45.0307 140.352 47.0201 147.053 50.1613 147.367C52.7789 147.681 55.8153 147.577 57.0717 147.681C58.3282 147.786 60.0035 145.482 57.3859 145.168C47.2295 144.226 50.1613 128.101 51.8365 120.143L40.6332 122.656Z" fill="#1A1A1A"/>
<path fill-rule="evenodd" clip-rule="evenodd" d="M17.7029 17.738C17.7029 17.738 17.7029 21.9264 19.1687 23.9158C25.5557 32.5019 30.6862 20.8793 26.1839 15.8533C25.451 15.1203 24.6134 13.1308 23.2522 13.2355C21.8911 13.3403 19.9017 15.5391 17.7029 17.738Z" fill="#FD7B01"/>
<path fill-rule="evenodd" clip-rule="evenodd" d="M23.2523 14.2826C19.4829 16.4815 21.6817 17.4239 20.0065 20.0416C16.97 25.0676 22.9382 25.6959 20.7394 29.4654C19.7971 31.1407 18.3312 32.9208 16.7606 33.4443C13.7242 34.3867 11.0019 31.3501 7.02314 30.6172C3.46319 30.5125 1.1597 33.0255 -1.77202 32.7114C-6.27431 32.7114 -8.99662 27.1618 -7.74017 22.3452C-5.75079 14.5968 -12.9754 12.5026 -10.4625 6.5342C-8.99662 3.18353 -5.85549 3.39295 -1.2485 3.39295C2.41615 3.39295 1.47381 0.356398 6.0808 0.0422724C12.4678 -0.48127 14.7713 4.0212 17.5983 4.54474C21.4723 5.38241 25.137 2.45057 28.6969 6.22008C30.1628 7.79071 29.8487 9.67546 30.1628 11.6649C30.4769 14.2826 34.4557 14.4921 33.5133 18.9945C32.571 23.497 28.2781 23.3923 27.7546 22.9735C27.4405 22.764 28.4875 20.1463 27.5452 17.9474C26.8122 16.2721 24.7182 15.7486 23.4617 14.2826C23.357 14.2826 23.357 14.2826 23.2523 14.2826Z" fill="#1A1A1A"/>
<path fill-rule="evenodd" clip-rule="evenodd" d="M21.5771 61.5061C21.5771 61.5061 16.2372 70.8252 18.3313 76.0606C20.4254 81.2961 27.3358 84.1232 29.6393 87.3692C31.9428 90.6151 35.9216 95.0129 37.178 99.5154C38.0157 102.342 38.2251 110.51 37.7016 116.478C37.3875 119.934 35.2934 121.19 35.8169 123.598C36.5498 126.635 40.6333 124.645 43.8791 123.912C47.125 123.179 50.7896 124.541 54.0354 124.645C58.8518 124.855 58.9565 122.132 57.2813 118.153C53.6166 109.358 53.4072 101.4 50.7896 92.1857C47.5438 80.6678 44.0885 69.0451 36.5498 59.3073L21.5771 61.5061Z" fill="#F7C119"/>
<path fill-rule="evenodd" clip-rule="evenodd" d="M41.9945 109.253C41.8898 109.044 41.7851 108.939 41.5757 108.939C41.6804 107.054 41.5757 105.274 41.2616 103.494C41.3663 103.389 41.471 103.389 41.471 103.285C41.7851 102.866 41.6804 102.133 41.1569 101.923C41.0522 101.923 41.0522 101.819 40.9475 101.819C40.5286 99.934 40.0051 98.0492 39.1675 96.2692C39.2722 96.1645 39.2722 96.0597 39.2722 95.955C39.4816 95.3268 39.0628 94.6985 38.4346 94.6985V94.5938C37.5969 93.0232 36.7593 91.5573 35.817 90.1961C35.9217 89.6725 35.7122 89.149 35.1887 88.9396C35.084 88.9396 34.9793 88.8349 34.8746 88.8349C33.8276 87.3689 32.7805 85.903 31.7335 84.5418C32.0476 84.0183 31.8382 83.39 31.4194 83.0759C31.21 82.8665 30.8959 82.8665 30.5817 82.9712C29.6394 81.61 28.5924 80.3535 27.7547 78.9922C27.8594 78.6781 27.7547 78.2593 27.5453 77.9452C27.3359 77.7357 27.1265 77.631 26.9171 77.631C26.0795 76.2698 25.2418 74.8039 24.5089 73.338C24.6136 73.2333 24.6136 73.1286 24.7183 73.0238C24.823 72.7097 24.7183 72.3956 24.6136 72.0815C24.4042 71.7674 24.0901 71.5579 23.776 71.5579C23.043 69.6732 22.5195 67.579 22.2054 65.3801C22.2054 65.066 21.6819 65.066 21.6819 65.3801C21.6819 67.579 22.1007 69.7779 22.7289 71.7673C22.6242 71.7673 22.4148 71.8721 22.3101 71.9768C22.1007 72.2909 21.996 72.7097 22.2054 73.0238C22.4148 73.4427 22.9383 73.7568 23.4619 73.7568C24.0901 75.3274 24.9277 76.7934 25.8701 78.2593C25.8701 78.364 25.8701 78.364 25.8701 78.4687C25.7653 78.6781 25.7653 78.8875 25.7653 79.097C25.8701 79.6205 26.3936 79.8299 26.8124 79.8299C27.7547 81.1911 28.6971 82.5523 29.7441 83.9135C29.7441 84.123 29.7441 84.4371 29.8488 84.6465C30.0582 85.0653 30.3723 85.2748 30.7912 85.2748C31.9429 86.7407 32.9899 88.1019 34.037 89.5678C33.9323 89.6725 33.9323 89.7772 33.9323 89.8819C33.8276 90.1961 33.9323 90.5102 34.037 90.7196C34.2464 91.1384 34.7699 91.2432 35.1887 91.1384C35.817 92.0808 36.4452 93.0232 36.9687 93.9656C37.2828 94.3844 37.4922 94.908 37.7016 95.3268C37.2828 95.7456 37.5969 96.5833 38.1204 96.7927C38.2252 96.8974 38.3299 96.8974 38.4346 96.8974C39.1675 98.5728 39.691 100.353 40.1098 102.133C39.5863 102.447 39.9004 103.285 40.2145 103.599L40.3192 103.703C40.5286 105.484 40.6333 107.264 40.6333 109.044C40.5286 109.044 40.4239 109.044 40.4239 109.044C39.9004 109.358 40.1098 110.195 40.4239 110.51C40.5286 110.614 40.5286 110.614 40.6333 110.719C40.6333 111.242 40.5286 111.766 40.5286 112.394C40.4239 113.232 40.2145 114.174 40.0051 115.117C39.9004 115.117 39.9004 115.117 39.7957 115.221C39.5863 115.431 39.4816 115.745 39.4816 116.059C39.4816 116.164 39.5863 116.373 39.691 116.478C39.3769 118.049 38.9581 119.829 38.8534 121.399C38.5393 121.504 38.3299 121.713 38.4346 122.132C38.5393 122.342 38.644 122.446 38.8534 122.551C38.8534 123.493 39.0628 124.436 39.3769 125.273C39.691 125.169 40.1098 125.169 40.5286 125.064C40.3192 124.436 40.3192 123.703 40.2145 123.075C40.3192 123.075 40.4239 122.97 40.5286 122.865C40.9475 122.446 40.6334 121.818 40.2145 121.504C40.2145 120.038 40.4239 118.677 40.7381 117.211C40.9475 117.211 41.0522 117.106 41.1569 117.001C41.6804 116.583 41.471 115.85 40.9475 115.536C41.2616 113.965 41.471 112.499 41.6804 111.033C41.7851 111.033 41.7851 110.928 41.8898 110.928C42.0992 110.3 42.3086 109.777 41.9945 109.253Z" fill="#F99A03"/>
<path fill-rule="evenodd" clip-rule="evenodd" d="M45.7638 110.929C46.0779 110.51 45.9732 109.986 45.6591 109.672C45.5544 109.567 45.4497 109.463 45.2403 109.358C45.2403 107.264 45.0309 105.17 44.6121 103.075C44.8215 102.971 45.0309 102.866 45.1356 102.657C45.2403 102.343 45.2403 102.028 45.1356 101.714C44.9262 101.4 44.6121 101.295 44.298 101.295C43.8791 99.6201 43.4603 98.0495 42.9368 96.3741C43.2509 96.06 43.3556 95.6412 43.1462 95.2223C42.9368 94.9082 42.6227 94.6988 42.3086 94.6988C42.3086 94.5941 42.2039 94.4894 42.2039 94.4894C41.4709 92.4999 40.5286 90.6152 39.691 88.7304C39.9004 88.521 40.1098 88.2069 40.0051 87.788C39.9004 87.2645 39.3769 86.8456 38.8533 86.9504C37.7016 84.5421 36.4451 82.2385 35.1887 79.9349C35.2934 79.8302 35.2934 79.7255 35.3981 79.7255C35.6075 79.0972 35.2934 78.3643 34.5605 78.2595C34.4558 78.2595 34.351 78.2595 34.351 78.2595C33.6181 76.7936 32.8852 75.4324 32.1523 73.9665C32.5711 73.5477 32.4664 72.8147 31.9429 72.6053C31.8381 72.5006 31.6287 72.5006 31.524 72.5006C30.5817 70.5111 29.7441 68.4169 28.9064 66.3228C28.8017 66.1134 28.3829 66.2181 28.4876 66.4275C29.1158 68.5216 29.8488 70.6158 30.6864 72.71C30.2676 72.9194 30.0582 73.443 30.3723 73.8618C30.5817 74.1759 31.0005 74.2806 31.3146 74.2806C32.0476 75.8512 32.7805 77.3172 33.5134 78.8878C33.4087 78.8878 33.4087 78.8878 33.304 78.9925C32.5711 79.3066 32.8852 80.3537 33.5134 80.5631C33.7228 80.6678 34.0369 80.6678 34.2463 80.5631C35.5028 83.0761 36.7592 85.4844 38.0157 87.9974C37.7016 88.4163 38.1204 88.9398 38.5392 89.1492C39.3769 90.9293 40.2145 92.814 40.9474 94.5941C41.0521 94.8035 41.1568 95.0129 41.1568 95.2223C41.0521 95.327 40.9474 95.327 40.9474 95.4317C40.738 95.6412 40.8427 95.9553 40.9474 96.06C40.8427 96.1647 40.8427 96.3741 40.9474 96.5835C41.0521 96.793 41.1568 97.0024 41.4709 97.0024C41.5756 97.0024 41.6804 97.0024 41.7851 97.0024C42.3086 98.573 42.7274 100.144 43.1462 101.714C42.9368 101.924 42.8321 102.133 42.9368 102.343C42.9368 102.657 43.1462 102.971 43.4603 103.18C43.8791 105.274 44.0885 107.264 44.1933 109.358C44.0885 109.358 43.8791 109.463 43.8791 109.672C43.6697 110.091 43.8791 110.51 44.1933 110.824C44.1933 110.824 44.1933 110.824 44.1933 110.929C44.1933 112.709 43.9838 114.593 43.7744 116.478C43.565 116.478 43.2509 116.583 43.0415 116.792C42.8321 117.002 42.9368 117.316 43.1462 117.525C43.2509 117.63 43.4603 117.735 43.6697 117.735C43.565 118.886 43.4603 120.038 43.4603 121.19C43.3556 121.19 43.3556 121.19 43.2509 121.19C42.8321 121.19 42.7274 121.714 43.0415 121.923C43.1462 122.028 43.3556 122.132 43.4603 122.132C43.4603 122.761 43.4603 123.389 43.565 124.122C43.6697 124.122 43.7744 124.017 43.8791 124.017C44.1933 123.912 44.5074 123.912 44.8215 123.912C44.8215 123.494 44.8215 123.075 44.7168 122.656C45.0309 122.656 45.345 122.237 45.0309 121.923C44.9262 121.818 44.8215 121.714 44.7168 121.609C44.7168 120.562 44.7168 119.619 44.8215 118.572C44.8215 118.572 44.8215 118.572 44.8215 118.468C45.1356 118.572 45.4497 118.468 45.4497 118.049C45.4497 117.63 45.2403 117.211 44.9262 116.897C45.0309 115.012 45.2403 113.127 45.2403 111.347C45.345 111.243 45.5544 111.138 45.7638 110.929Z" fill="#F99A03"/>
<path fill-rule="evenodd" clip-rule="evenodd" d="M50.9992 117.525C50.7898 117.211 50.4757 116.897 50.1615 116.792C50.1615 116.792 50.1615 116.792 50.0568 116.792C49.9521 115.326 49.8474 113.86 49.7427 112.394C49.7427 111.766 49.638 111.138 49.5333 110.614C49.9521 110.3 50.1615 109.672 49.7427 109.253C49.638 109.148 49.5333 109.148 49.4286 109.044C49.1145 106.845 48.8004 104.541 48.2769 102.342C48.8004 102.028 49.0098 101.4 48.6957 100.876C48.4863 100.562 48.1722 100.458 47.858 100.353C47.5439 99.0963 47.2298 97.8398 46.9157 96.5833C46.7063 95.7456 46.3922 94.908 46.0781 93.9656C46.4969 93.5467 46.4969 92.9185 46.1828 92.4997C45.9734 92.2902 45.764 92.0808 45.4499 92.0808C44.7169 90.1961 43.984 88.3113 43.2511 86.4266C43.4605 86.2171 43.5652 85.903 43.5652 85.5889C43.5652 85.3795 43.3558 85.1701 43.1464 85.1701C42.937 85.1701 42.8322 85.1701 42.6228 85.1701C42.204 84.2277 41.7852 83.2853 41.3664 82.2382C40.8429 81.0864 40.3193 79.8299 39.7958 78.6781C40.2146 78.4687 40.3193 77.9452 40.1099 77.5263C39.9005 77.2122 39.4817 77.1075 39.1676 77.1075C38.5394 75.6416 37.9111 74.0709 37.1782 72.605C37.2829 72.5003 37.3876 72.2909 37.4923 72.1862C37.597 71.7674 37.3876 71.3485 36.9688 71.2438C36.8641 71.2438 36.6547 71.2438 36.55 71.2438C35.7124 69.3591 34.8747 67.579 34.0371 65.799C33.9324 65.5895 33.6183 65.6943 33.723 65.9037C34.4559 67.7884 35.1888 69.5685 35.9218 71.4532C35.7124 71.6626 35.6077 71.8721 35.7124 72.1862C35.8171 72.605 36.1312 72.9191 36.55 72.9191C37.1782 74.4898 37.9111 75.9557 38.5394 77.5263L38.4347 77.631C38.2253 77.7357 38.0158 78.0499 38.0158 78.2593C37.9111 78.5734 38.1206 78.8875 38.4347 78.8875C38.6441 78.8875 38.8535 78.8875 39.1676 78.8875C40.1099 81.0864 41.0523 83.1806 41.8899 85.3795C41.7852 85.3795 41.6805 85.4842 41.6805 85.4842C41.5758 85.5889 41.5758 85.6936 41.5758 85.903C41.4711 86.3218 41.6805 86.636 41.9946 86.8454C42.204 86.9501 42.4134 86.9501 42.5181 86.9501C43.2511 88.8349 43.984 90.7196 44.6122 92.6044C44.6122 92.6044 44.6122 92.6044 44.6122 92.7091C44.4028 92.9185 44.4028 93.1279 44.4028 93.442C44.4028 93.9656 44.8216 94.2797 45.2404 94.3844C45.4499 95.0127 45.6593 95.5362 45.764 96.1645C46.1828 97.7351 46.6016 99.201 47.0204 100.772C46.811 100.981 46.7063 101.4 46.811 101.819C46.9157 102.133 47.1251 102.447 47.4392 102.552C47.858 104.646 48.2769 106.845 48.4863 108.939C48.1722 109.044 47.858 109.462 47.9628 109.881C48.0675 110.195 48.3816 110.51 48.6957 110.614C48.6957 111.033 48.8004 111.557 48.8004 111.975C48.9051 113.441 49.0098 115.012 49.1145 116.478C48.591 116.792 48.6957 117.525 49.1145 117.944C49.1145 118.572 49.1145 119.2 49.1145 119.829C49.1145 120.352 49.1145 120.98 49.0098 121.504C49.0098 121.504 49.0098 121.504 48.9051 121.504C48.591 121.609 48.4863 122.027 48.6957 122.237C48.8004 122.342 48.8004 122.342 48.9051 122.446C48.9051 122.97 48.8004 123.389 48.8004 123.912C49.2192 124.017 49.638 124.017 50.0568 124.122C50.0568 123.703 50.1615 123.284 50.1615 122.97C50.2662 122.97 50.4757 122.97 50.5804 122.97C50.8945 122.865 50.9992 122.446 50.7898 122.132C50.5804 121.923 50.4757 121.818 50.2662 121.713C50.2662 120.666 50.2662 119.514 50.2662 118.467C50.5804 118.467 50.7898 118.363 50.9992 118.153C51.1039 117.944 51.1039 117.734 50.9992 117.525Z" fill="#F99A03"/>
<path fill-rule="evenodd" clip-rule="evenodd" d="M54.3497 119.724C54.4544 119.41 54.245 118.991 53.9309 118.782C53.8262 118.782 53.8262 118.677 53.7215 118.677C53.5121 116.478 53.198 114.174 52.9886 111.976C53.198 111.976 53.4074 111.871 53.5121 111.661C53.7215 111.347 53.7215 111.033 53.5121 110.719C53.4074 110.405 53.0933 110.3 52.7792 110.196C52.4651 107.892 52.1509 105.588 51.7321 103.285C51.8368 103.285 51.9415 103.18 52.0462 103.075C52.2556 102.761 52.1509 102.342 51.8368 102.028C51.7321 101.924 51.6274 101.924 51.5227 101.819C51.1039 99.3058 50.5804 96.6881 49.9522 94.1751V94.0704C50.2663 93.861 50.4757 93.4422 50.371 93.128C50.2663 92.7092 49.9522 92.3951 49.5333 92.3951C48.9051 90.1962 48.2769 87.8926 47.544 85.6937C47.7534 85.589 47.9628 85.3796 47.9628 85.0655C47.9628 84.6466 47.7534 84.3325 47.3345 84.2278C47.2298 84.2278 47.1251 84.2278 47.0204 84.2278C46.2875 82.1336 45.5546 80.1442 44.6122 78.05C44.8216 77.5264 44.7169 76.8982 44.1934 76.6888C44.0887 76.6888 44.0887 76.6888 43.984 76.5841C43.0417 74.4899 42.0993 72.5004 40.9476 70.511C41.157 70.3016 41.2617 70.0921 41.2617 69.8827C41.2617 69.6733 41.157 69.4639 41.0523 69.3592C40.8429 69.1498 40.5288 69.2545 40.3194 69.2545C39.2723 67.4744 38.2253 65.6944 37.1782 64.019C36.9688 63.7049 36.55 64.019 36.6547 64.3332C37.7018 66.1132 38.6441 67.8933 39.5864 69.6733C39.5864 69.6733 39.5864 69.6733 39.4817 69.778L39.377 69.8827C39.2723 69.9874 39.2723 69.9874 39.2723 70.0921C39.1676 70.1968 39.1676 70.4063 39.2723 70.6157C39.377 70.8251 39.4817 70.8251 39.6911 70.8251C39.7958 70.8251 39.9005 70.7204 39.9005 70.7204H40.0052C41.0523 72.8146 42.0993 74.9087 43.0417 77.0029C43.0417 77.1076 42.937 77.2123 42.937 77.4217C42.937 77.5264 43.0417 77.5264 43.0417 77.6312V77.7359C43.0417 77.6311 43.0417 77.7359 43.0417 77.8406C43.0417 77.9453 43.1464 77.9453 43.1464 78.05C43.2511 78.1547 43.3558 78.2594 43.4605 78.2594C43.4605 78.2594 43.4605 78.2594 43.5652 78.2594C44.5075 80.3536 45.3452 82.4478 46.0781 84.6466C45.764 84.9608 45.9734 85.3796 46.3922 85.4843C47.2298 87.8926 47.9628 90.3009 48.591 92.7092C48.3816 92.9186 48.1722 93.2327 48.3816 93.5469C48.4863 93.6516 48.591 93.7563 48.8004 93.7563C48.8004 93.861 48.9051 93.861 48.9051 93.9657C49.5333 96.5834 50.0569 99.3058 50.5804 102.028C50.2663 102.238 50.2663 102.761 50.5804 102.866C50.5804 102.971 50.6851 102.971 50.6851 103.075C51.1039 105.484 51.418 107.892 51.7321 110.3C51.7321 110.405 51.7321 110.51 51.7321 110.614V110.719C51.6274 110.824 51.6274 110.928 51.6274 111.033C51.6274 111.138 51.7321 111.347 51.8368 111.452C52.1509 113.651 52.3604 115.85 52.5698 118.049C52.5698 118.363 52.6745 118.572 52.6745 118.886C52.4651 118.991 52.3604 119.2 52.4651 119.41C52.5698 119.619 52.6745 119.829 52.8839 119.933C53.0933 121.504 53.3027 123.075 53.3027 124.645C53.5121 124.645 53.8262 124.645 54.0356 124.645C54.1403 124.645 54.245 124.645 54.3497 124.645C54.3497 123.179 54.1403 121.713 53.9309 120.248C54.1403 120.143 54.3497 120.038 54.3497 119.724Z" fill="#F99A03"/>
<path fill-rule="evenodd" clip-rule="evenodd" d="M13.0959 101.61C13.0959 101.296 12.8865 101.086 12.8865 100.772C12.7818 100.249 12.0488 100.458 12.0488 100.877C12.0488 101.296 12.1535 101.714 12.3629 101.924C12.6771 102.238 13.0959 101.924 13.0959 101.61Z" fill="#3F3D3B"/>
<path fill-rule="evenodd" clip-rule="evenodd" d="M19.9017 117.106C17.7029 115.326 17.8076 111.766 16.4464 109.358C16.3417 109.253 16.1323 109.253 16.1323 109.463C16.3417 111.348 17.0747 113.128 17.7029 114.908C18.1217 115.955 18.5405 117.002 19.4829 117.63C19.797 117.839 20.1111 117.421 19.9017 117.106Z" fill="#3F3D3B"/>
<path fill-rule="evenodd" clip-rule="evenodd" d="M40.9471 147.158C40.7377 146.948 40.3189 147.053 40.0048 146.948C39.7954 146.948 39.6907 147.158 39.6907 147.263C39.6907 147.472 39.9001 147.577 40.0048 147.577C40.3189 147.577 40.633 147.681 40.9471 147.577C41.1565 147.577 41.1565 147.263 40.9471 147.158Z" fill="#3F3D3B"/>
<path fill-rule="evenodd" clip-rule="evenodd" d="M57.3858 146.739C56.1293 146.53 54.8729 146.53 53.6164 146.53C52.36 146.53 51.1035 146.215 49.9518 146.215C49.8471 146.215 49.7424 146.32 49.8471 146.425C50.58 147.158 51.7318 147.158 52.6741 147.158C54.2447 147.263 55.8152 147.367 57.2811 147.263C57.5952 147.158 57.6999 146.739 57.3858 146.739Z" fill="#3F3D3B"/>
<path fill-rule="evenodd" clip-rule="evenodd" d="M20.9488 56.2711C21.5771 54.0722 24.1947 53.1298 25.8699 52.9204C28.697 52.5016 30.6863 52.5016 30.791 50.5121C30.8958 48.418 30.8958 46.3238 32.2569 44.8579C33.5134 43.4967 35.9216 42.659 37.9109 44.1249C39.0627 44.8579 42.3085 45.6955 43.7744 47.9991C45.4496 50.6168 45.1355 54.8052 42.0991 55.6428C38.6439 56.5852 38.1203 56.5852 38.0156 58.3653C37.9109 61.9254 39.4815 65.1713 35.1886 67.789C33.8275 68.6267 31.4193 68.6267 29.744 68.4173C24.5088 67.9985 18.9595 62.8677 20.9488 56.2711Z" fill="#0C263B"/>
<path fill-rule="evenodd" clip-rule="evenodd" d="M21.1582 54.2816C21.7865 52.0828 23.8805 50.4074 25.5558 50.198C28.3828 49.7792 30.3722 49.7792 30.4769 47.7897C30.5816 45.6955 30.5816 43.6014 31.9428 42.1354C33.1992 40.7742 35.6074 39.9366 37.5968 41.4025C38.7486 42.1354 41.3662 44.0202 42.9367 46.3238C44.612 48.9415 44.9261 52.1875 41.8897 52.9204C38.4344 53.8628 37.9109 53.8628 37.8062 55.6429C37.7015 59.2029 39.2721 62.4489 34.9792 65.0666C33.618 65.9043 31.2098 65.9043 29.5346 65.6949C24.09 65.2761 19.2736 60.8783 21.1582 54.2816Z" fill="#76AA4E"/>
<path fill-rule="evenodd" clip-rule="evenodd" d="M37.5969 42.5543C37.5969 42.5543 44.8215 32.8164 47.125 30.9316C49.2191 29.4657 50.2661 32.8164 50.7897 33.1305C51.4179 33.6541 42.4133 44.7532 41.7851 45.4861C41.1569 46.4285 37.4922 43.7061 37.5969 42.5543Z" fill="#5991B8"/>
<path fill-rule="evenodd" clip-rule="evenodd" d="M46.6015 31.1411C46.4968 31.1411 49.5332 33.4447 49.9521 33.8635C50.3709 34.3871 55.9202 32.3976 55.7108 30.7223C55.5014 29.1517 52.1508 24.2304 50.8944 24.9633C49.7426 25.801 47.125 30.827 46.6015 31.1411Z" fill="#76AA4E"/>
<path fill-rule="evenodd" clip-rule="evenodd" d="M32.5709 48.5225C29.011 51.0355 29.6392 57.2133 33.618 55.8521C36.9685 54.7003 38.4344 52.292 38.2249 50.6167C38.0155 49.0461 36.445 46.5331 32.5709 48.5225Z" fill="#0C263B"/>
<path fill-rule="evenodd" clip-rule="evenodd" d="M25.3463 55.1193C26.1839 55.8522 32.6756 61.4018 32.6756 61.6112C32.5709 62.1347 31.838 62.5536 31.838 62.5536C31.838 62.5536 24.9275 56.3758 24.7181 56.1663C24.6134 55.9569 25.0322 55.6428 25.3463 55.1193Z" fill="#5991B8"/>
<path fill-rule="evenodd" clip-rule="evenodd" d="M53.3023 32.9211C53.407 32.7117 53.8258 33.2353 54.14 33.5494C54.4541 33.8635 54.5588 34.4918 54.4541 34.7012C53.8258 35.6436 52.8835 33.8635 53.3023 32.9211Z" fill="#0C263B"/>
<path fill-rule="evenodd" clip-rule="evenodd" d="M25.9746 57.4229C28.9063 53.8628 36.2356 44.8578 41.6802 38.3659C42.9367 36.9 44.1932 35.2246 45.4496 33.654C46.6013 32.2928 47.7531 31.0363 48.486 29.5704C48.6954 28.8374 48.9048 28.1044 48.1719 27.7903L48.2766 27.4762C48.3813 27.4762 48.486 27.5809 48.5907 27.6856C48.8001 27.895 49.0095 28.2092 49.1143 28.5233C49.219 28.9421 49.219 29.361 48.9048 29.8845C48.8001 30.1986 48.5907 30.5127 48.2766 30.8269C40.9473 39.5177 33.9321 49.0462 26.184 57.6323L25.9746 57.4229Z" fill="#0C263B"/>
<path fill-rule="evenodd" clip-rule="evenodd" d="M27.1265 58.4699L28.3829 56.7946C35.3981 47.8943 42.518 38.7847 49.8473 30.5127C51.4179 28.4185 51.3132 28.4185 50.2661 26.3244C50.1614 26.1149 49.952 25.9055 49.8473 25.6961L50.0567 25.4867C50.2661 25.8008 50.3708 25.9055 50.4755 26.1149C52.0461 28.4185 52.0461 28.4185 50.0567 30.7221C43.0415 39.2035 35.9216 48.3132 28.5923 57.004L27.3359 58.6793L27.1265 58.4699Z" fill="#0C263B"/>
<path fill-rule="evenodd" clip-rule="evenodd" d="M28.3826 59.6217C30.4767 56.8993 36.1307 49.3602 41.3659 42.7636C46.4964 35.9575 51.5222 29.9891 52.2551 29.9891C53.0928 29.7797 54.1398 30.7221 55.0822 31.4551C55.2916 31.6645 55.501 31.7692 55.6057 31.8739L55.3963 32.0833C55.1869 31.9786 55.0822 31.7692 54.8727 31.6645C53.1975 30.7221 52.5693 29.9891 51.6269 31.0362C50.0563 32.8163 46.0776 37.7376 41.7847 43.0777C36.4448 49.7791 30.6861 57.1087 28.592 59.8311L28.3826 59.6217Z" fill="#0C263B"/>
<path fill-rule="evenodd" clip-rule="evenodd" d="M29.4299 60.4594C31.3146 58.0511 39.5862 47.2661 45.6591 39.7271C49.0096 35.5387 51.6272 32.2928 52.0461 32.1881C53.3025 31.7692 53.7213 33.2351 53.7213 33.2351L53.4072 33.3398C53.0931 32.2928 52.5696 32.1881 51.6272 33.1304C49.7426 35.1199 46.6014 39.3082 45.9732 39.9365C40.0051 47.6849 31.8381 58.9935 29.6393 60.7735L29.4299 60.4594Z" fill="#0C263B"/>
<path fill-rule="evenodd" clip-rule="evenodd" d="M55.1873 31.6645C55.292 31.4551 55.7108 31.8739 56.0249 32.1881C56.3391 32.5022 56.5485 33.1304 56.4438 33.3399C55.9202 34.3869 54.8732 32.7116 55.1873 31.6645Z" fill="#0C263B"/>
<path fill-rule="evenodd" clip-rule="evenodd" d="M50.3708 25.9055C50.5802 25.9055 50.3708 25.2773 50.0567 24.8585C49.8473 24.4396 49.3237 24.1255 49.1143 24.1255C48.0673 24.3349 49.3237 25.9055 50.3708 25.9055Z" fill="#0C263B"/>
<path fill-rule="evenodd" clip-rule="evenodd" d="M48.3814 28.2091C48.5908 28.2091 48.3814 27.5809 48.0672 27.162C47.8578 26.7432 47.3343 26.4291 47.1249 26.4291C46.0779 26.6385 47.439 28.2091 48.3814 28.2091Z" fill="#0C263B"/>
<path fill-rule="evenodd" clip-rule="evenodd" d="M26.4981 57.5273C26.4981 57.5273 29.1157 54.8049 30.058 52.9201C31.0003 51.0353 30.4768 54.5954 31.3145 54.5954C32.1521 54.5954 36.0262 50.7212 36.1309 51.7683C36.9685 58.8885 27.3357 61.5062 25.8698 62.4486C25.9745 62.3439 22.2052 60.6685 26.4981 57.5273Z" fill="#FD7B01"/>
<path fill-rule="evenodd" clip-rule="evenodd" d="M10.7928 33.7584C3.25405 33.9678 -10.5669 49.36 -9.10106 59.7261C-7.6352 69.5687 2.93994 75.4324 11.1069 74.3853C18.9597 72.3959 29.0113 60.5638 27.7548 62.4485C27.7548 61.5062 26.6031 56.6896 26.6031 56.6896C23.2526 57.3178 15.6092 58.9932 13.3057 55.1189C12.3633 53.653 12.7821 49.8835 15.3997 47.3705C20.9491 42.0304 22.2055 33.4443 10.7928 33.7584Z" fill="#FFB3A3"/>
<path fill-rule="evenodd" clip-rule="evenodd" d="M5.87135 63.3909C5.34782 63.4956 5.13842 64.0192 5.34782 64.5427C5.45253 64.8568 5.76664 64.9615 6.08075 64.9615C6.60427 64.9615 6.91839 64.5427 6.91839 64.0192C6.81368 63.6003 6.39487 63.2862 5.87135 63.3909Z" fill="#FFCFC6"/>
<path fill-rule="evenodd" clip-rule="evenodd" d="M9.6407 54.8048C9.43129 54.1766 8.48895 53.9671 8.07013 54.5954C7.86072 55.0142 8.07013 55.4331 8.38425 55.6425C8.38425 55.6425 8.48895 55.7472 8.59366 55.7472C9.22188 56.0613 9.85011 55.4331 9.6407 54.8048Z" fill="#FFCFC6"/>
<path fill-rule="evenodd" clip-rule="evenodd" d="M1.26449 46.533C0.740967 46.7424 0.426854 47.5801 1.05508 47.8942C1.15978 47.8942 1.15978 47.8942 1.26449 47.9989C1.78801 48.313 2.41624 47.8942 2.41624 47.3707C2.41624 46.7424 1.78801 46.3236 1.26449 46.533Z" fill="#FFCFC6"/>
<path fill-rule="evenodd" clip-rule="evenodd" d="M10.6878 44.1244C10.5831 44.2291 10.4784 44.4385 10.4784 44.5432V44.648C10.3737 44.9621 10.5831 45.2762 10.8972 45.3809C11.4207 45.6951 12.049 45.2762 12.049 44.7527C11.9443 44.1244 11.1066 43.7056 10.6878 44.1244Z" fill="#FFCFC6"/>
<path fill-rule="evenodd" clip-rule="evenodd" d="M9.536 36.062C9.01248 36.3761 8.90778 37.3185 9.64071 37.4232C10.1642 37.6326 10.6877 37.2138 10.6877 36.6902C10.6877 36.062 10.0595 35.7478 9.536 36.062Z" fill="#FFCFC6"/>
<path fill-rule="evenodd" clip-rule="evenodd" d="M19.4829 41.9258C19.4829 41.4023 18.7499 41.1928 18.4358 41.507C18.017 41.8211 18.1217 42.4493 18.5405 42.6588C18.9593 42.8682 19.4829 42.6588 19.4829 42.2399C19.3781 42.1352 19.4829 42.0305 19.4829 41.9258Z" fill="#FFCFC6"/>
<path fill-rule="evenodd" clip-rule="evenodd" d="M21.7865 33.549C21.1583 33.7584 20.9489 34.8055 21.6818 35.0149C22.1006 35.329 22.7289 35.1196 22.9383 34.5961C23.043 33.8631 22.31 33.3396 21.7865 33.549Z" fill="#FFCFC6"/>
<path fill-rule="evenodd" clip-rule="evenodd" d="M27.0216 27.8947C26.3934 28.1041 26.184 29.1512 26.9169 29.3606C27.3357 29.6747 27.964 29.4653 28.1734 28.9418C28.2781 28.2088 27.6499 27.6853 27.0216 27.8947Z" fill="#FFCFC6"/>
<path fill-rule="evenodd" clip-rule="evenodd" d="M31.9427 33.8633C31.5239 33.8633 30.8957 34.1774 31.0004 34.701C31.0004 34.9104 31.2098 35.1198 31.4192 35.2245C31.838 35.4339 32.2568 35.2245 32.4662 34.9104C32.7803 34.3868 32.5709 33.8633 31.9427 33.8633Z" fill="#FFCFC6"/>
<path fill-rule="evenodd" clip-rule="evenodd" d="M26.7077 44.0199C26.4983 44.2293 26.4983 44.4387 26.4983 44.6481C26.4983 44.7528 26.603 44.9622 26.7077 45.067C27.1265 45.4858 28.0689 45.1717 28.0689 44.5434C28.0689 43.9151 27.2312 43.4963 26.7077 44.0199Z" fill="#FFCFC6"/>
<path fill-rule="evenodd" clip-rule="evenodd" d="M37.1779 29.6749C36.8638 29.4655 36.5496 29.5702 36.3402 29.7797C36.3402 29.7797 36.2355 29.7797 36.2355 29.8844C36.1308 30.0938 36.0261 30.3032 36.0261 30.5126V30.6173C36.0261 30.6173 36.0261 30.722 36.1308 30.722C36.3402 31.0362 36.7591 31.1409 37.0732 30.9314C37.5967 30.6173 37.7014 29.8844 37.1779 29.6749Z" fill="#FFCFC6"/>
<path fill-rule="evenodd" clip-rule="evenodd" d="M18.9595 63.8098C18.5407 63.8098 18.2266 64.2286 18.2266 64.6475C18.2266 64.9616 18.436 65.0663 18.6454 65.171C18.7501 65.3804 18.9595 65.3804 19.1689 65.3804C19.483 65.2757 19.6924 64.9616 19.6924 64.6475C19.6924 64.1239 19.3783 63.8098 18.9595 63.8098Z" fill="#FFCFC6"/>
<path fill-rule="evenodd" clip-rule="evenodd" d="M9.95509 71.0347C9.85038 70.5111 9.32686 70.0923 8.80334 70.4064C8.59393 70.5111 8.38452 70.7205 8.38452 70.93C8.38452 71.1394 8.38452 71.4535 8.59393 71.5582C8.69864 71.7677 8.80334 71.8724 9.01275 71.8724C9.64097 72.1865 10.0598 71.5582 9.95509 71.0347Z" fill="#FFCFC6"/>
<path fill-rule="evenodd" clip-rule="evenodd" d="M47.6486 40.4598C47.6486 40.4598 51.1039 38.4703 51.6274 38.4703C55.0826 38.4703 63.7731 60.7733 52.465 62.1345C50.5803 62.3439 38.1205 57.4226 47.6486 40.4598Z" fill="#FFB3A3"/>
<path fill-rule="evenodd" clip-rule="evenodd" d="M48.2766 39.2034C48.2766 39.2034 43.2508 37.7375 43.5649 34.1774C43.879 30.6173 46.0778 30.5126 46.0778 30.5126L48.5907 34.8056C48.5907 34.8056 49.2189 32.1879 49.6378 32.3973C50.0566 32.6067 50.9989 37.3186 51.4177 38.6798C51.6271 39.9363 48.6954 43.0776 48.2766 39.2034Z" fill="#FD7B01"/>
<path fill-rule="evenodd" clip-rule="evenodd" d="M48.8 44.4386C48.8 43.9151 48.1718 43.7057 47.753 44.0198C47.3342 44.3339 47.4389 45.0669 48.0671 45.1716C48.2765 45.1716 48.4859 45.0669 48.5906 44.9622C48.6953 44.8575 48.8 44.7527 48.8 44.4386Z" fill="#FFCFC6"/>
<path fill-rule="evenodd" clip-rule="evenodd" d="M55.1871 45.6952C54.6636 45.3811 53.8259 45.7999 53.8259 46.4282C53.8259 46.5329 53.9306 46.7423 54.0353 46.847C54.2447 47.1611 54.873 47.2658 55.1871 47.0564C55.8153 46.7423 55.7106 46.0093 55.1871 45.6952Z" fill="#FFCFC6"/>
<path fill-rule="evenodd" clip-rule="evenodd" d="M52.9884 57.213C52.8837 56.6895 52.0461 56.4801 51.6273 56.7942C51.2085 57.213 51.3132 58.0507 51.9414 58.2601C52.1508 58.3648 52.3602 58.2601 52.4649 58.0507C52.8837 58.0507 53.0931 57.7366 52.9884 57.213Z" fill="#FFCFC6"/>
<path fill-rule="evenodd" clip-rule="evenodd" d="M47.2296 50.7214C47.0202 50.6167 46.7061 50.512 46.392 50.7214C46.1826 50.8261 45.9731 51.1402 45.9731 51.4543C45.9731 51.559 45.9731 51.559 45.9731 51.6637C45.9731 51.8732 45.9731 52.0826 46.2873 52.1873H46.392C46.6014 52.292 46.8108 52.292 47.0202 52.0826C47.2296 51.9779 47.439 51.7685 47.439 51.559C47.5437 51.1402 47.5437 50.8261 47.2296 50.7214Z" fill="#FFCFC6"/>
<path fill-rule="evenodd" clip-rule="evenodd" d="M28.278 15.3298C27.0215 15.7486 25.8698 16.2722 24.8227 17.0051C24.2992 17.3193 23.671 17.8428 23.671 18.4711C23.4616 18.3664 23.1475 18.3664 22.9381 18.5758C22.8333 18.6805 22.7286 18.7852 22.7286 18.8899C22.2051 18.3664 21.4722 18.6805 20.844 18.7852C19.5875 19.0993 18.4358 19.7276 17.3887 20.4605C17.284 20.5653 17.1793 20.7747 17.3887 20.8794C18.6452 21.5076 20.844 22.7641 22.3098 21.9265C23.2522 21.4029 23.4616 20.2511 23.0428 19.4135C23.2522 18.6805 23.4616 18.8899 23.9851 19.0993C24.4039 19.937 25.451 20.4605 26.3933 20.0417C27.9639 19.4135 28.278 17.0051 28.5921 15.5392C28.6968 15.4345 28.4874 15.2251 28.278 15.3298ZM20.6346 21.717C19.6922 21.5076 18.8546 21.0888 18.017 20.67C18.6452 20.2511 19.2734 19.937 19.9016 19.6229C20.6346 19.3087 21.891 18.6805 22.6239 19.3087C23.3569 20.67 22.1004 22.0312 20.6346 21.717ZM27.2309 18.5758C26.6027 19.937 24.8227 20.0417 24.1945 18.6805C24.0898 17.7381 25.451 17.1099 26.0792 16.691C26.7074 16.3769 27.3356 16.0628 28.0686 15.8534C27.8591 16.7957 27.6497 17.7381 27.2309 18.5758Z" fill="#FFCFC6"/>
<path fill-rule="evenodd" clip-rule="evenodd" d="M25.2416 22.2405C25.0322 22.1358 24.9275 22.2405 24.7181 22.2405C24.6134 22.2405 24.404 22.4499 24.404 22.4499C24.2993 22.4499 24.0898 22.3452 23.9851 22.3452C23.8804 22.3452 23.671 22.4499 23.5663 22.5546C23.3569 22.7641 23.1475 23.1829 23.2522 23.497C23.4616 23.9158 24.1946 24.0206 24.6134 24.0206C25.1369 23.9158 25.5557 23.3923 25.6604 22.9735C25.6604 22.6593 25.5557 22.3452 25.2416 22.2405Z" fill="#FFCFC6"/>
<path fill-rule="evenodd" clip-rule="evenodd" d="M27.231 17.6334C27.0216 17.1098 26.4981 17.3193 26.0793 17.424C25.5557 17.5287 25.0322 17.8428 24.8228 18.3664C24.7181 18.5758 25.0322 18.8899 25.2416 18.5758C25.5557 18.0522 26.3934 17.8428 27.0216 17.9475C27.0216 17.9475 27.231 17.8428 27.231 17.6334Z" fill="#1A1A1A"/>
<path fill-rule="evenodd" clip-rule="evenodd" d="M22.3101 19.937C22.1007 19.4134 21.5772 19.6229 21.1584 19.7276C20.6348 19.8323 20.1113 20.1464 19.9019 20.6699C19.7972 20.8794 20.1113 21.1935 20.3207 20.8794C20.6348 20.3558 21.4725 20.1464 22.1007 20.2511C22.2054 20.2511 22.4148 20.0417 22.3101 19.937Z" fill="#1A1A1A"/>
</svg>
