<svg width="69" height="174" viewBox="0 0 69 174" fill="none" xmlns="http://www.w3.org/2000/svg">
<path fill-rule="evenodd" clip-rule="evenodd" d="M33.7213 32.7473C33.7137 29.2012 30.9666 28.551 30.1 24.5802C29.5908 19.9488 32.0549 16.6332 36.6344 16.2188C40.9994 16.2007 44.7601 18.0735 47.6426 14.9133C50.5082 11.1652 60.4419 7.82125 64.7716 13.1313C67.1689 17.988 65.0739 21.7051 68.9009 23.9198C70.2939 24.5958 74.0976 24.6865 76.9889 27.0825C80.3207 29.7479 82.714 37.0887 78.7854 39.8603C76.5904 42.0594 69.1 43.9839 68.9257 47.0922C70.1079 54.1947 66.0998 62.0665 58.0327 57.0077C54.5085 54.8526 52.3959 47.4574 50.6675 47.5558C41.8607 48.1982 33.8663 45.0173 33.7213 32.7473Z" fill="#FFB500"/>
<path fill-rule="evenodd" clip-rule="evenodd" d="M30.6625 81.5866C30.6625 81.5866 20.9284 96.4806 21.7985 106.482C22.5856 115.553 38.1869 127.429 46.8945 135.793C48.2108 137.075 48.8955 140.608 48.1429 143.238C47.8024 144.486 51.6061 144.577 52.1402 144.828C53.1148 145.349 53.9183 135.969 51.2961 132.457C48.696 129.058 40.7032 119.373 38.5877 116.472C36.4722 113.571 33.3822 110.149 35.6916 106.036C37.9075 101.941 42.5461 89.8082 42.5461 89.8082L44.3475 83.0735L30.6625 81.5866Z" fill="#008C96"/>
<path fill-rule="evenodd" clip-rule="evenodd" d="M54.88 105.865C53.4957 110.745 47.12 117.42 46.1775 124.58C44.8073 134.542 45.3201 145.204 45.6096 150.705C45.9613 159.033 46.8901 165.83 42.5757 167.612C33.6271 170.529 33.8664 165.752 37.2621 164.739C44.2627 162.791 35.4664 134.933 35.4435 124.295C35.4998 117.071 37.4832 110.774 42.3908 97.5247L54.88 105.865Z" fill="#49A8A8"/>
<path fill-rule="evenodd" clip-rule="evenodd" d="M62.7832 66.4933C66.5868 66.584 70.4479 61.4604 75.339 66.6617C80.2301 71.863 78.0584 76.1861 74.3885 78.7893C67.918 83.4725 60.2757 80.1051 55.2521 74.22C55.3248 76.098 55.491 77.9578 55.6573 79.8176C57.4069 96.8615 70.1779 107.158 65.6944 111.574C60.6442 116.573 56.6149 107.303 49.1529 110.877C42.3239 114.211 33.5849 108.691 28.946 101.786C25.2713 96.3485 11.1609 101.684 17.729 94.4991C28.2193 83.0061 32.7827 64.9753 32.3061 59.5099C31.9242 56.0363 23.4865 57.0802 18.2211 51.9514C12.9557 46.8227 8.74332 35.1044 14.438 30.9263L19.5126 30.0611C27.3227 28.7842 25.3418 39.1012 31.4829 45.2427C36.4013 50.0839 41.5515 46.6026 41.2335 39.4509C43.0775 39.4483 44.6629 39.6141 46.59 40.5414C45.8282 46.1286 49.7098 47.6232 52.0722 49.2939C59.2309 54.174 56.9484 66.4415 62.7832 66.4933Z" fill="#F41C00"/>
<path fill-rule="evenodd" clip-rule="evenodd" d="M49.196 34.9516C48.5242 34.4906 48.4941 39.3447 47.1801 42.0826C40.7341 50.8999 37.6601 37.5419 39.6604 31.8329C40.6442 29.3955 44.7455 30.0198 49.196 34.9516Z" fill="#FD7B01"/>
<path fill-rule="evenodd" clip-rule="evenodd" d="M75.3813 73.3939L81.4647 65.7112L79.795 62.6054L72.6033 67.0736C67.9041 69.8763 73.8308 76.4141 75.3813 73.3939Z" fill="#FD7B01"/>
<path fill-rule="evenodd" clip-rule="evenodd" d="M79.6695 54.9434C79.6695 54.9434 75.0964 56.8939 73.5917 53.6379C72.0871 50.382 71.5 44.3466 70.4463 40.412C69.299 36.4956 76.5349 32.2553 78.4737 34.2447C80.4125 36.234 85.4722 47.3151 85.7593 48.7968C85.9308 50.1825 84.6779 53.7364 79.6695 54.9434Z" fill="#FFB3A3"/>
<path fill-rule="evenodd" clip-rule="evenodd" d="M42.8623 29.3204C42.8623 29.3204 42.2202 32.5194 44.4007 33.7524C46.5812 34.9854 47.3972 37.1923 47.6454 37.9719C46.3913 39.5157 45.3227 47.5274 50.0997 46.1287C56.5192 48.1957 54.8732 38.6998 55.1644 37.6974C55.4555 36.695 50.7596 26.4893 50.297 26.106C49.8344 25.7226 42.148 22.1273 40.6405 23.3654C39.133 24.6036 36.0983 30.986 36.1593 31.8019C36.1983 32.5039 39.1193 38.5599 39.0972 38.4459C39.0972 38.4459 38.7763 35.7883 40.0903 33.0504C40.7115 31.7475 42.3957 31.4211 42.8623 29.3204Z" fill="#FFB500"/>
<path fill-rule="evenodd" clip-rule="evenodd" d="M35.1598 164.91C38.4282 162.74 38.7554 166.933 41.5676 165.915C44.2863 164.915 45.9512 159.981 45.9512 159.981C47.7627 160.812 46.9683 167.234 46.7888 170.816C45.6166 171.28 44.8954 171.065 43.7284 171.054C43.4309 170.521 43.8702 168.78 43.6441 168.114C43.3245 167.467 41.9158 168.213 41.1347 169.192C40.2601 170.189 39.991 171.306 39.826 171.456C37.3218 172.059 35.1971 172.116 33.5896 171.837C33.131 168.969 33.4431 166.071 35.1598 164.91Z" fill="#FFB500"/>
<path fill-rule="evenodd" clip-rule="evenodd" d="M46.586 144.722C47.2659 140.215 50.1519 143.085 51.284 139.909C52.416 136.733 50.558 131.654 50.558 131.654C52.2253 130.739 55.5972 136.117 57.7127 139.018C57.2786 140.285 56.712 140.867 55.9309 141.847C55.4189 141.709 54.5977 139.976 54.0636 139.725C53.436 139.492 53.1123 141.328 53.0967 142.751C53.1966 144.268 53.6046 145.372 53.6488 145.6C52.4063 148.206 51.1249 150.109 49.9202 151.407C47.8164 149.568 46.2571 147.032 46.586 144.722Z" fill="#FFB500"/>
<path fill-rule="evenodd" clip-rule="evenodd" d="M21.2254 31.3849L17.1897 20.5783L14.0084 21.1948L15.3685 31.2191C16.209 37.56 22.8899 34.9646 21.2254 31.3849Z" fill="#FD7B01"/>
<path fill-rule="evenodd" clip-rule="evenodd" d="M17.509 21.2256C17.5311 21.3396 16.9789 18.4903 16.6308 16.1927C16.4152 14.579 16.7167 12.6286 16.0397 12.6415C15.6654 12.714 15.6562 15.6721 15.3261 15.9726C14.996 16.273 13.0207 17.6018 10.7012 14.149C8.31029 10.8283 8.86363 15.6876 9.38728 16.8869C10.0045 18.0681 13.1323 20.1817 13.1323 20.1817L14.1796 22.5803C14.2732 22.5622 17.6038 23.2175 17.509 21.2256Z" fill="#FD7B01"/>
<path fill-rule="evenodd" clip-rule="evenodd" d="M48.8061 36.4462C47.7873 35.6977 46.675 34.9672 45.4859 34.8429C45.0896 34.8014 44.6932 34.76 44.3189 34.8325C43.664 34.9594 43.3781 35.4878 42.8167 35.5966C42.0902 35.8557 41.8421 35.076 41.2859 34.7108C40.8454 34.4414 40.449 34.3999 40.0527 34.3585C39.1664 34.2937 38.1593 34.6071 37.6589 35.5319C37.5874 35.664 37.7252 35.8738 37.8187 35.8556C37.9018 36.7855 38.6178 37.4746 39.1961 37.9538C40.2149 38.7023 41.0791 38.6531 42.1304 38.5677C43.3909 38.5599 44.1238 39.8369 45.4116 39.4691C46.6994 39.1013 47.9483 38.0315 49.0322 37.1119C49.1037 36.9798 49.1751 36.8477 49.153 36.7338C49.0595 36.7519 49.0374 36.6379 48.8061 36.4462Z" fill="#F41C00"/>
<path fill-rule="evenodd" clip-rule="evenodd" d="M43.1164 40.1503C42.863 39.8446 42.4667 39.8032 42.208 39.9715C41.839 39.57 41.1347 39.943 40.9644 40.5673C40.8929 40.6994 40.915 40.8134 40.9371 40.9273L40.9592 41.0413C41.1852 41.707 41.5764 42.2225 42.1105 42.4737C42.6445 42.725 43.1838 42.5022 43.4477 41.8598C43.6179 41.2356 43.4854 40.5517 43.1164 40.1503Z" fill="#F41C00"/>
<path fill-rule="evenodd" clip-rule="evenodd" d="M47.045 37.3786C46.8189 36.7129 46.0262 36.63 45.5584 36.7207C44.8813 36.7336 44.3641 37.0704 43.869 37.5211C43.7039 37.6713 43.7702 38.0132 43.9794 38.0909C44.095 38.1868 44.1886 38.1686 44.2601 38.0365C44.6837 37.7179 45.1295 37.5133 45.6194 37.5366C46.0157 37.5781 46.4563 37.8475 46.8084 37.661C47.0891 37.6066 47.045 37.3786 47.045 37.3786Z" fill="black"/>
<path fill-rule="evenodd" clip-rule="evenodd" d="M40.8959 36.2054C40.3398 35.8401 39.7342 35.721 39.1013 35.9619C38.7491 36.1484 38.9531 36.7001 39.3274 36.6276C39.7952 36.5369 40.2851 36.5602 40.7477 36.9436C40.979 37.1353 41.0947 37.2311 41.2545 37.5549C41.3923 37.7647 41.4143 37.8787 41.6236 37.9564C41.7392 38.0522 41.8107 37.9201 41.9043 37.902C41.9589 37.1819 41.2429 36.4929 40.8959 36.2054Z" fill="black"/>
<path fill-rule="evenodd" clip-rule="evenodd" d="M21.8694 40.72C21.9408 40.5879 21.8967 40.36 21.6875 40.2823C20.9442 39.9533 19.9422 39.7927 19.1222 40.0699C18.7805 39.3083 18.2737 38.697 17.8605 38.0676C17.7449 37.9717 17.5356 37.894 17.4642 38.0261C17.0847 38.5727 16.6779 39.4793 16.5518 40.3315C15.7591 40.2486 14.8455 40.5439 14.2568 41.0127C14.0918 41.1629 14.1139 41.2769 14.2516 41.4867C14.6427 42.0022 15.0559 42.6316 15.5406 43.1289C15.2274 44.0174 15.239 45.0794 15.4157 45.9912C15.4599 46.2191 15.5755 46.315 15.7627 46.2787C16.2084 46.0741 16.7477 45.8513 17.1935 45.6467C17.3975 46.1984 17.6729 46.618 17.8769 47.1698C18.0147 47.3796 18.1082 47.3614 18.2954 47.3252C18.7905 46.8745 19.2415 46.1958 19.4832 45.4395C20.1109 45.6726 20.8321 45.8876 21.4377 46.0067C21.6469 46.0845 21.7184 45.9524 21.6742 45.7244C21.5911 44.7945 21.3702 43.6548 20.8413 42.9295C21.2481 42.0229 21.6055 41.3624 21.8694 40.72ZM52.3311 68.1639C52.3805 67.9179 52.2649 67.822 52.0556 67.7443C51.2629 67.6614 50.2558 67.9748 49.6892 68.5576C49.1824 67.9463 48.5106 67.4853 47.9544 67.12C47.8388 67.0242 47.6516 67.0605 47.6022 67.3065C47.3605 68.0629 47.2565 69.0291 47.4111 69.8269C46.6626 69.9719 45.9309 70.705 45.4799 71.3836C45.4084 71.5157 45.4526 71.7436 45.5683 71.8395C46.0309 72.2228 46.6806 72.5699 47.2368 72.9352C47.1328 73.9013 47.4472 75.0229 47.8825 75.7663C48.0202 75.9761 48.1138 75.958 48.3009 75.9217C48.7246 75.6031 49.1262 75.1706 49.4342 74.7561C49.8032 75.1576 50.0787 75.5772 50.4477 75.9787C50.5634 76.0746 50.7505 76.0383 50.822 75.9062C51.1794 75.2457 51.3991 74.3754 51.4316 73.5413C52.1086 73.5284 52.7636 73.4014 53.4185 73.2745C53.6057 73.2383 53.6772 73.1061 53.633 72.8782C53.3627 71.9846 52.7897 71.0313 52.0958 70.4563C52.1504 69.7362 52.2765 68.884 52.3311 68.1639ZM37.6589 82.1228C37.7083 81.8767 37.5927 81.7809 37.3834 81.7032C36.5907 81.6203 35.5836 81.9337 35.017 82.5165C34.5102 81.9052 33.8384 81.4441 33.2822 81.0789C33.1666 80.9831 32.9794 81.0193 32.93 81.2654C32.6883 82.0218 32.5843 82.9879 32.7389 83.7857C31.9904 83.9308 31.2587 84.6638 30.8077 85.3425C30.7362 85.4746 30.7804 85.7025 30.8961 85.7984C31.3587 86.1817 32.0084 86.5288 32.5646 86.894C32.4606 87.8602 32.775 88.9818 33.2103 89.7252C33.348 89.935 33.4416 89.9169 33.6287 89.8806C34.0524 89.562 34.454 89.1294 34.762 88.715C35.131 89.1165 35.5001 89.518 35.7755 89.9376C35.8912 90.0335 36.0783 89.9972 36.1498 89.8651C36.5072 89.2046 36.7269 88.3342 36.7594 87.5002C37.4364 87.4872 38.0914 87.3603 38.7463 87.2334C38.9335 87.1971 39.005 87.065 38.9608 86.8371C38.6905 85.9434 38.1175 84.9902 37.4236 84.4152C37.4782 83.6951 37.6043 82.8429 37.6589 82.1228ZM77.3866 75.725C76.7096 75.7379 75.9831 75.9969 75.4165 76.5797C74.9097 75.9684 74.2379 75.5074 73.6817 75.1421C73.5661 75.0463 73.379 75.0826 73.3296 75.3286C73.0878 76.085 72.9838 77.0512 73.1384 77.849C72.3899 77.994 71.6582 78.7271 71.2072 79.4057C71.1358 79.5378 71.1799 79.7658 71.2956 79.8616C71.5269 80.0533 71.7582 80.245 71.9895 80.4366C72.7874 80.0455 73.5853 79.6544 74.3612 79.1493C75.6815 77.9474 76.7433 76.9139 77.3866 75.725ZM56.4187 55.1919C56.0666 55.3784 55.808 55.5468 55.5493 55.7151C55.0426 55.1038 54.3707 54.6428 53.8146 54.2775C53.6989 54.1817 53.5118 54.218 53.4624 54.464C53.2206 55.2204 53.1166 56.1866 53.2712 56.9844C52.5227 57.1294 51.791 57.8625 51.3401 58.5411C51.2686 58.6732 51.3128 58.9011 51.4284 58.997C51.891 59.3803 52.5408 59.7274 53.0969 60.0927C52.9929 61.0588 53.3074 62.1804 53.7427 62.9238C53.8804 63.1336 53.974 63.1155 54.1611 63.0792C54.5847 62.7606 54.9863 62.3281 55.2943 61.9136C55.6634 62.3151 56.0324 62.7166 56.3079 63.1362C56.4235 63.2321 56.6107 63.1958 56.6821 63.0637C57.0395 62.4032 57.2592 61.5329 57.2917 60.6988C57.5945 60.7584 57.8752 60.704 58.1559 60.6496C57.709 58.8442 57.1464 56.9429 56.4187 55.1919ZM26.8442 84.928C26.9157 84.7959 26.8715 84.568 26.6623 84.4903C26.2439 84.3348 25.6383 84.2157 25.0769 84.3245C23.8618 86.5702 22.4595 88.8523 20.9195 90.9245C21.0351 91.0203 21.1287 91.0022 21.2222 90.984C21.668 90.7794 22.2073 90.5566 22.631 90.238C22.8349 90.7898 23.1104 91.2094 23.3859 91.629C23.408 91.743 23.6172 91.8207 23.6887 91.6886C24.1838 91.2379 24.6127 90.4453 24.7609 89.707C25.3885 89.9402 26.0877 90.0412 26.7647 90.0282C26.9518 89.992 27.0233 89.8599 27.0012 89.7459C26.9181 88.816 26.5101 87.7126 25.9813 86.9873C26.3387 86.3268 26.5804 85.5704 26.8442 84.928ZM65.9423 65.7628C66.3114 66.1643 66.6804 66.5658 67.0274 66.8533C66.7141 67.7418 66.8414 68.8996 67.1117 69.7932C67.1558 70.0212 67.3651 70.0989 67.4365 69.9668C67.8823 69.7622 68.4216 69.5394 68.8453 69.2208C69.0492 69.7725 69.3247 70.1921 69.6002 70.6118C69.7379 70.8216 69.8315 70.8035 69.9965 70.6532C70.4917 70.2025 70.9206 69.4099 71.0687 68.6717C71.6964 68.9048 72.3955 69.0058 73.0726 68.9929C73.2597 68.9566 73.3312 68.8245 73.3091 68.7105C73.226 67.7806 72.818 66.6772 72.2891 65.9519C72.5036 65.5556 72.6244 65.1774 72.8389 64.7811C70.3062 63.7346 68.0996 64.8718 65.9423 65.7628ZM39.6311 66.2497C39.7026 66.1176 39.6584 65.8896 39.4492 65.8119C38.7059 65.483 37.6325 65.4545 36.9281 65.8275C36.4928 65.0841 35.986 64.4728 35.4793 63.8615C35.3636 63.7656 35.1544 63.6879 35.105 63.934C34.7476 64.5945 34.4344 65.483 34.4018 66.317C33.6092 66.2341 32.7398 66.7574 32.151 67.2262C31.986 67.3764 32.0081 67.4904 32.1458 67.7002C32.537 68.2157 33.0437 68.827 33.5999 69.1922C33.2867 70.0807 33.414 71.2385 33.6842 72.1322C33.7284 72.3601 33.9376 72.4378 34.0091 72.3057C34.4548 72.1011 34.9941 71.8783 35.4178 71.5597C35.6218 72.1114 35.8973 72.5311 36.1727 72.9507C36.3105 73.1605 36.404 73.1424 36.5691 72.9921C37.0642 72.5414 37.4931 71.7488 37.6413 71.0106C38.2689 71.2437 38.9681 71.3447 39.6451 71.3318C39.8323 71.2955 39.9037 71.1634 39.8816 71.0494C39.7985 70.1195 39.3905 69.0161 38.8617 68.2908C39.1255 67.6484 39.3673 66.8921 39.6311 66.2497ZM66.0523 74.8468C66.1238 74.7147 66.0796 74.4868 65.964 74.391C65.2701 73.8159 64.3175 73.4092 63.4754 73.5724C63.2273 72.7927 62.8855 72.0312 62.5438 71.2697C62.4061 71.0599 62.3125 71.078 62.1254 71.1143C61.6302 71.565 61.0857 72.2617 60.8661 73.1321C60.1228 72.8031 59.1871 72.9844 58.4607 73.2434C58.2735 73.2797 58.2241 73.5258 58.3398 73.6216C58.6594 74.2692 58.9791 74.9168 59.3923 75.5462C59.0128 76.0927 58.7931 76.9631 58.7385 77.6831C59.0855 77.9707 59.526 78.2401 59.873 78.5276C60.0601 78.4913 60.3408 78.4369 60.5279 78.4007C60.5721 78.6286 60.6163 78.8565 60.6604 79.0845C61.1009 79.3539 61.5194 79.5093 61.9599 79.7787C62.29 79.4782 62.598 79.0638 62.8124 78.6675C63.3907 79.1467 64.0183 79.3798 64.6681 79.7269C64.8773 79.8046 64.9488 79.6725 65.0203 79.5404C65.1464 78.6882 65.0191 77.5303 64.6553 76.6548C65.2933 75.9399 65.6728 75.3934 66.0523 74.8468ZM60.0917 94.6856C59.8773 95.0819 59.6629 95.4782 59.542 95.8564C58.7987 95.5275 57.863 95.7088 57.1366 95.9678C56.9495 96.0041 56.9001 96.2501 57.0157 96.346C57.3354 96.9935 57.655 97.6411 58.0682 98.2705C57.6173 98.9492 57.3482 100.066 57.4313 100.995C57.4755 101.223 57.5911 101.319 57.6847 101.301C58.1525 101.21 58.736 101.216 59.1818 101.011C59.2922 101.581 59.4962 102.133 59.5845 102.589C59.6287 102.816 59.8379 102.894 59.9094 102.762C60.4266 102.425 61.1089 101.938 61.4442 101.164C62.0225 101.643 62.6501 101.876 63.2999 102.223C63.5091 102.301 63.5805 102.169 63.652 102.037C63.6299 101.923 63.7014 101.791 63.6793 101.677C62.7204 99.7341 61.3924 97.3899 60.0917 94.6856ZM54.4561 87.1454C54.5276 87.0133 54.4835 86.7853 54.3678 86.6895C53.6739 86.1144 52.7214 85.7078 51.8793 85.8709C51.6311 85.0913 51.2894 84.3297 50.9477 83.5682C50.8099 83.3584 50.7163 83.3765 50.5292 83.4128C50.0341 83.8635 49.4895 84.5603 49.2699 85.4306C48.5266 85.1016 47.5909 85.2829 46.8645 85.542C46.6773 85.5782 46.628 85.8243 46.7436 85.9202C47.0633 86.5677 47.3829 87.2153 47.7961 87.8447C47.3451 88.5234 47.0761 89.6398 47.1592 90.5697C47.2034 90.7976 47.319 90.8934 47.4126 90.8753C47.8804 90.7847 48.4639 90.7898 48.9097 90.5852C49.0201 91.1551 49.2241 91.7068 49.3124 92.1627C49.3566 92.3906 49.5658 92.4683 49.6373 92.3362C50.1545 91.9995 50.8368 91.5125 51.1721 90.738C51.7504 91.2172 52.378 91.4504 53.0277 91.7975C53.237 91.8752 53.3084 91.7431 53.3799 91.611C53.506 90.7588 53.3787 89.6009 53.0149 88.7254C53.6972 88.2384 54.1702 87.6738 54.4561 87.1454ZM42.3207 99.6666C42.3921 99.5345 42.348 99.3066 42.2323 99.2108C41.5384 98.6357 40.5859 98.229 39.7438 98.3922C39.4956 97.6126 39.1539 96.851 38.8122 96.0895C38.6744 95.8797 38.5809 95.8978 38.3937 95.9341C37.8986 96.3848 37.3541 97.0816 37.1344 97.9519C36.3911 97.6229 35.4554 97.8042 34.729 98.0633C34.5419 98.0995 34.4925 98.3456 34.6081 98.4414C34.9278 99.089 35.2474 99.7366 35.6606 100.366C35.2097 101.045 34.9406 102.161 35.0237 103.091C35.0679 103.319 35.1836 103.415 35.2771 103.397C35.745 103.306 36.3284 103.311 36.7742 103.106C36.8846 103.676 37.0886 104.228 37.1769 104.684C37.2211 104.912 37.4303 104.99 37.5018 104.858C38.019 104.521 38.7013 104.034 39.0366 103.259C39.6149 103.739 40.2425 103.972 40.8923 104.319C41.1015 104.396 41.173 104.264 41.2444 104.132C41.3705 103.28 41.2432 102.122 40.8794 101.247C41.4681 100.778 41.9412 100.213 42.3207 99.6666ZM47.6874 53.2181C47.7589 53.086 47.7147 52.8581 47.5991 52.7622C46.9052 52.1872 45.9527 51.7805 45.1106 51.9437C44.8624 51.164 44.5207 50.4025 44.1789 49.6409C44.0412 49.4311 43.9476 49.4493 43.7605 49.4855C43.2654 49.9362 42.7208 50.633 42.5012 51.5033C41.7579 51.1744 40.8222 51.3557 40.0958 51.6147C39.9086 51.651 39.8592 51.8971 39.9749 51.9929C40.2945 52.6405 40.6142 53.288 41.0274 53.9175C40.5764 54.5961 40.3074 55.7125 40.3905 56.6424C40.4347 56.8704 40.5503 56.9662 40.6439 56.9481C41.1117 56.8574 41.6952 56.8626 42.1409 56.658C42.2514 57.2278 42.4554 57.7795 42.5437 58.2354C42.5879 58.4634 42.7971 58.5411 42.8686 58.409C43.3858 58.0722 44.0681 57.5853 44.4034 56.8108C44.9816 57.29 45.6093 57.5231 46.259 57.8702C46.4682 57.9479 46.5397 57.8158 46.6112 57.6837C46.7373 56.8315 46.61 55.6737 46.2462 54.7982C46.8349 54.3293 47.3079 53.7646 47.6874 53.2181ZM55.5793 105.966C55.6287 105.72 55.513 105.624 55.3038 105.547C54.489 105.35 53.5533 105.531 52.7775 106.036C52.2707 105.425 51.6704 104.832 51.1857 104.334C51.07 104.238 50.8829 104.275 50.8114 104.407C50.5476 105.049 50.35 106.034 50.4111 106.849C49.6625 106.995 48.8867 107.5 48.3422 108.196C48.2707 108.328 48.2213 108.575 48.4305 108.652C48.8931 109.036 49.4714 109.515 50.0275 109.88C49.9782 110.126 50.0223 110.354 49.9508 110.486C52.3888 109.541 54.4147 109.976 56.3197 110.789C56.3197 110.789 56.3912 110.657 56.3691 110.543C56.1924 109.631 55.6909 108.546 54.997 107.971C55.2829 107.443 55.5026 106.572 55.5793 105.966ZM26.0658 34.822C25.3173 34.9671 24.5635 35.5861 23.9969 36.1689C23.9254 36.301 23.876 36.5471 24.0852 36.6248C24.5478 37.0082 25.1261 37.4874 25.6823 37.8526C25.5783 38.8188 25.777 39.8445 26.0473 40.7382C26.0915 40.9661 26.3007 41.0438 26.4657 40.8936C26.8894 40.575 27.313 40.2564 27.7146 39.8238C27.9901 40.2434 28.2435 40.5491 28.4969 40.8547C27.5379 38.912 26.8155 36.687 26.0658 34.822ZM33.6309 47.3097C33.6803 47.0636 33.5647 46.9678 33.3554 46.8901C32.5406 46.6932 31.605 46.8745 30.8292 47.3796C30.3224 46.7683 29.722 46.1751 29.2373 45.6778C29.1217 45.582 28.9346 45.6182 28.8631 45.7503C28.5992 46.3927 28.4017 47.377 28.4627 48.1929C27.7142 48.338 26.9383 48.8431 26.3938 49.5399C26.3223 49.672 26.2729 49.9181 26.4822 49.9958C26.9448 50.3791 27.523 50.8583 28.0792 51.2236C27.9752 52.1897 28.174 53.2155 28.4442 54.1091C28.4884 54.337 28.6976 54.4148 28.8626 54.2645C29.2863 53.9459 29.71 53.6273 30.1115 53.1947C30.387 53.6144 30.7781 54.1298 31.0315 54.4355C31.1472 54.5313 31.3564 54.609 31.4279 54.4769C31.8074 53.9304 32.1206 53.0419 32.1752 52.3218C32.8743 52.4229 33.5514 52.4099 34.1128 52.3011C34.2999 52.2649 34.3714 52.1328 34.3272 51.9048C34.1505 50.993 33.649 49.9077 32.9551 49.3327C33.3345 48.7861 33.4827 48.0479 33.6309 47.3097Z" fill="#FFB3A3"/>
</svg>
