<svg width="38" height="38" viewBox="0 0 38 38" fill="none" xmlns="http://www.w3.org/2000/svg">
<path d="M23.1853 19.001L37.3929 4.79273C37.7837 4.40161 37.9994 3.8798 38 3.3234C38 2.76668 37.7844 2.24426 37.3929 1.85375L36.1479 0.609022C35.7565 0.216974 35.2346 0.0022583 34.6776 0.0022583C34.1215 0.0022583 33.5997 0.216974 33.2083 0.609022L19.0006 14.8164L4.79233 0.609022C4.40151 0.216974 3.8794 0.0022583 3.32268 0.0022583C2.76659 0.0022583 2.24447 0.216974 1.85366 0.609022L0.608 1.85375C-0.202667 2.66442 -0.202667 3.98299 0.608 4.79273L14.816 19.001L0.608 33.2087C0.216878 33.6004 0.00154472 34.1222 0.00154472 34.6786C0.00154472 35.2351 0.216878 35.7569 0.608 36.1483L1.85335 37.393C2.24416 37.7848 2.76659 37.9998 3.32237 37.9998C3.87909 37.9998 4.4012 37.7848 4.79202 37.393L19.0003 23.1853L33.208 37.393C33.5994 37.7848 34.1212 37.9998 34.6773 37.9998H34.6779C35.2343 37.9998 35.7561 37.7848 36.1476 37.393L37.3926 36.1483C37.7834 35.7572 37.9991 35.2351 37.9991 34.6786C37.9991 34.1222 37.7834 33.6004 37.3926 33.209L23.1853 19.001Z" fill="white"/>
</svg>
