<svg width="34" height="44" viewBox="0 0 34 44" fill="none" xmlns="http://www.w3.org/2000/svg">
<path d="M3.12886 6H30.8711C32.5964 6 34 7.3453 34 9.00102C34 10.6546 32.5964 12 30.8711 12H3.12886C1.40363 12 0 10.6546 0 9.00102C0 7.3453 1.40363 6 3.12886 6Z" fill="white"/>
<path d="M3.12886 18H30.8711C32.5964 18 34 19.3453 34 21.001C34 22.6546 32.5964 24 30.8711 24H3.12886C1.40363 24 0 22.6546 0 21.001C0 19.3453 1.40363 18 3.12886 18Z" fill="white"/>
<path d="M3.12886 30H30.8711C32.5964 30 34 31.3454 34 33.001C34 34.6546 32.5964 36 30.8711 36H3.12886C1.40363 36 0 34.6546 0 33.001C0 31.3454 1.40363 30 3.12886 30Z" fill="white"/>
</svg>
