<svg width="70" height="66" viewBox="0 0 70 66" fill="none" xmlns="http://www.w3.org/2000/svg">
<path d="M68.6031 42.2698C68.0434 42.2147 67.5419 42.621 67.4849 43.1814C66.2855 54.9812 55.7029 64.4518 42.4813 62.8736V62.8734C36.2801 62.0426 30.6657 58.6283 27.0901 53.3564C17.349 38.901 27.0149 18.1469 46.9264 18.7888V18.7895C47.5385 18.8359 47.4644 18.8245 48.3581 18.9319V18.9321C48.3676 18.9334 48.3772 18.9348 48.3852 18.9357V18.9359C58.6954 20.3109 66.4574 28.6341 67.4805 38.586C67.538 39.1421 68.0166 39.5829 68.5743 39.5418C69.15 39.4993 69.5733 38.991 69.515 38.4206C68.9851 33.2434 66.8144 28.5466 63.6484 24.9607V24.9606C61.6551 22.6914 59.3074 20.8516 56.7115 19.4825V19.4827C54.935 18.541 52.8825 17.7842 51.3612 17.4317L51.2794 17.411C50.0019 17.1045 48.7906 16.9139 48.6545 16.9139V16.9137C43.8268 16.248 38.9166 17.1292 34.7332 19.1878C32.1283 17.9157 29.3691 17.1376 26.4992 16.8648C28.1442 13.6039 30.6322 9.19307 34.1242 7.08867C35.1591 6.46462 35.4075 5.02269 34.4787 4.05818L32.0657 1.55278C31.0721 0.521074 29.384 0.620579 28.5243 1.77513C27.1013 3.68609 25.5106 6.572 24.239 9.71625C23.0749 6.35534 20.2365 1.59092 13.3724 0.049478C12.1752 -0.219443 11.2224 0.647322 11.2049 1.69341C11.1761 3.43142 11.4379 7.8133 14.4873 10.9601C16.455 12.9907 19.2046 14.1431 22.6674 14.3996C22.4518 15.2223 22.2741 16.0385 22.139 16.8378C9.75947 17.8664 0 28.2669 0 40.9046C0 46.7881 2.1406 52.4565 6.02764 56.8657C9.87923 61.2348 15.1647 64.0663 20.9099 64.8385C21.4682 64.9114 21.982 64.5218 22.0571 63.9634C22.1322 63.4052 21.7403 62.8916 21.1819 62.8166C10.2696 61.3499 2.04067 51.9295 2.04067 40.9044C2.04067 24.998 18.325 14.6016 32.5211 20.4273C31.0437 21.3158 28.9786 22.9646 27.2159 24.9626C17.2587 36.2551 20.2553 54.0134 32.5178 61.3796C30.3701 62.2589 28.1063 62.788 25.7646 62.9565C25.2234 62.9953 24.7806 63.4434 24.7869 63.9859C24.7934 64.5535 25.255 64.996 25.8061 64.996C25.8302 64.996 25.8547 64.9952 25.8791 64.9934C28.9794 64.7743 31.9548 63.9759 34.7322 62.6205C45.9522 68.1514 59.3443 63.9423 65.482 54.4754L65.4818 54.4752C65.4818 54.4752 65.4818 54.4752 65.4818 54.4751L65.4821 54.4754C67.6455 51.2859 69.0955 47.5085 69.5152 43.3877C69.5719 42.8273 69.1636 42.3268 68.6031 42.2698ZM13.2447 2.11478C20.4507 3.88659 22.3556 9.66249 22.8537 12.3706C16.4538 11.9093 13.3256 7.91267 13.2447 2.11478ZM24.2742 16.7541C24.247 16.7447 24.2545 16.7473 24.2273 16.7379C25.1713 11.7107 27.8932 6.03891 30.161 2.99349C30.27 2.84702 30.4775 2.84485 30.596 2.96797L32.9521 5.41419C28.738 8.02018 25.9892 13.2842 24.2742 16.7541Z" fill="#76BC21"/>
<path d="M52.5909 23.6613C48.0049 21.7523 42.8194 21.8446 38.787 23.457C38.7879 23.4566 38.7887 23.4563 38.7896 23.4559C35.5188 24.6503 32.7549 27.0629 32.1652 27.7752C22.843 37.2149 26.0579 53.0587 38.2597 58.1414V58.1415C41.8797 59.5634 45.467 59.8926 48.8701 59.254V59.2537C65.897 56.7034 70.6092 31.0788 52.5909 23.6613ZM62.0289 39.8762H49.0819C48.9983 39.5796 48.8796 39.2977 48.7304 39.0351L57.8825 29.8852C60.3555 32.6746 61.7971 36.1511 62.0289 39.8762ZM46.4462 24.311C50.0268 24.5167 53.5703 25.9102 56.4386 28.4437L47.2852 37.5948C47.023 37.4471 46.742 37.3297 46.4462 37.2472V24.311ZM42.8438 24.4794L42.8335 24.4814C43.3556 24.3995 43.8911 24.3413 44.4058 24.3113V37.2472C44.1101 37.3297 43.8289 37.4471 43.5668 37.5948L34.42 28.4502C36.8845 26.2672 39.6378 25.0396 42.8438 24.4794ZM32.9769 29.8925L42.1216 39.0351C41.9723 39.2978 41.8537 39.5796 41.77 39.8762H28.8371C29.0665 36.1961 30.4825 32.7089 32.9769 29.8925ZM32.5846 51.4584C32.2527 51.0544 31.9383 50.6338 31.6596 50.222C30.2508 48.1388 29.3768 45.8438 29.0105 43.5329C28.9244 42.967 28.8733 42.5247 28.8361 41.916H41.7654C41.8481 42.2147 41.9664 42.4987 42.1155 42.7631L32.9686 51.9078C32.7633 51.6755 32.6991 51.5945 32.5846 51.4584ZM44.406 57.4977H44.4058C43.5554 57.4491 42.7626 57.3159 42.8141 57.3246C42.7781 57.319 42.4909 57.2711 42.3733 57.2491V57.2493C41.7886 57.1317 40.6826 56.9309 39.0378 56.2557V56.2556C38.514 56.035 38.063 55.8189 37.7372 55.646V55.6462C36.9275 55.2194 36.2043 54.7584 35.6009 54.312V54.3122C35.1773 54.001 34.7956 53.6914 34.4112 53.3513L43.5564 44.2083C43.8216 44.3588 44.1062 44.4783 44.406 44.5621V57.4977ZM43.6827 40.6754C43.7822 39.8928 44.4143 39.261 45.197 39.1614C46.3455 39.0155 47.3156 39.9855 47.1695 41.1336C47.07 41.9162 46.4379 42.5481 45.655 42.6476C44.5067 42.7935 43.5367 41.8234 43.6827 40.6754ZM53.159 55.6303C51.6552 56.4 50.2135 56.9268 48.493 57.2493V57.2491C47.8227 57.3741 47.0771 57.4628 46.4462 57.4985V44.5618C46.746 44.4782 47.0308 44.3586 47.296 44.208L56.4477 53.3577C55.4133 54.2721 54.3288 55.0124 53.159 55.6303ZM57.8905 51.9154L48.7365 42.7634C48.8856 42.4988 49.0038 42.2151 49.0865 41.9163H62.0297C61.7952 45.7423 60.2937 49.1994 57.8905 51.9154Z" fill="#76BC21"/>
<path d="M11.2455 41.5653C11.2346 41.5147 11.2202 41.4642 11.202 41.417C11.1785 41.3532 11.1491 41.2929 11.1139 41.2364C11.0786 41.1798 11.0377 41.1269 10.9909 41.0775C10.9565 41.0403 10.9175 41.0048 10.8768 40.9727C10.8001 40.9117 10.7139 40.8627 10.6228 40.8269C10.5756 40.8083 10.5277 40.7929 10.4791 40.7822C10.2179 40.7202 9.93652 40.7671 9.70881 40.9084C9.4811 41.0499 9.3145 41.2815 9.25421 41.5429C9.24226 41.5913 9.2348 41.641 9.23072 41.6915C9.22271 41.7881 9.22814 41.8863 9.24824 41.9812C9.25924 42.0329 9.27376 42.0845 9.29237 42.1327C9.31599 42.1965 9.34546 42.2567 9.38049 42.3132C9.41552 42.3697 9.45653 42.4228 9.50337 42.4722C9.5384 42.51 9.57792 42.5459 9.61933 42.5785C9.69564 42.6387 9.78118 42.6871 9.87148 42.7228C9.91859 42.7414 9.96639 42.7567 10.015 42.7674C10.2764 42.8293 10.558 42.7825 10.7856 42.641C11.0131 42.4997 11.1799 42.268 11.24 42.0065C11.2521 41.9582 11.2594 41.9084 11.2637 41.858C11.2719 41.7603 11.2662 41.6612 11.2455 41.5653Z" fill="#76BC21"/>
<path d="M14.6268 46.7502C14.6159 46.6996 14.6015 46.6491 14.5833 46.6018C14.56 46.538 14.5305 46.4777 14.4955 46.4211C14.4602 46.3645 14.4193 46.3116 14.3724 46.262C14.3381 46.2247 14.2991 46.1894 14.2584 46.1572C14.1817 46.0963 14.0955 46.0473 14.0043 46.0114C13.9572 45.9928 13.9093 45.9775 13.8607 45.9668C13.5994 45.9047 13.3181 45.9517 13.0904 46.093C12.8627 46.2345 12.6961 46.4661 12.6358 46.7275C12.6239 46.7759 12.6164 46.8255 12.6123 46.876C12.6043 46.9727 12.6097 47.0709 12.6298 47.1657C12.6408 47.2175 12.6554 47.2691 12.674 47.3172C12.6976 47.381 12.727 47.4413 12.7621 47.4978C12.7971 47.5544 12.8381 47.6073 12.885 47.6568C12.9199 47.6946 12.9595 47.7305 13.0009 47.7631C13.0772 47.8233 13.1628 47.8718 13.2531 47.9074C13.3002 47.926 13.348 47.9413 13.3966 47.952C13.6578 48.0141 13.9393 47.9672 14.1669 47.8258C14.3944 47.6845 14.5612 47.4527 14.6213 47.1913C14.6334 47.1429 14.6408 47.0931 14.645 47.0428C14.6532 46.9451 14.6474 46.8462 14.6268 46.7502Z" fill="#76BC21"/>
<path d="M17.8349 52.0425C17.824 51.9919 17.8096 51.9414 17.7914 51.8942C17.7682 51.8305 17.7387 51.7702 17.7036 51.7136C17.6683 51.6569 17.6274 51.6041 17.5806 51.5545C17.5462 51.5173 17.5072 51.4819 17.4665 51.4497C17.3898 51.3888 17.3036 51.3397 17.2125 51.3039C17.1653 51.2853 17.1174 51.27 17.0688 51.2593C16.8076 51.1972 16.5262 51.2442 16.2985 51.3855C16.0708 51.527 15.9042 51.7586 15.8439 52.02C15.832 52.0683 15.8245 52.118 15.8204 52.1685C15.8124 52.2652 15.8179 52.3633 15.838 52.4582C15.849 52.5099 15.8635 52.5615 15.8821 52.6097C15.9057 52.6735 15.9352 52.7337 15.9702 52.7903C16.0052 52.8469 16.0462 52.8998 16.0931 52.9492C16.128 52.9871 16.1676 53.023 16.209 53.0555C16.2854 53.1158 16.3709 53.164 16.4612 53.1998C16.5083 53.2184 16.5561 53.2338 16.6047 53.2445C16.8659 53.3065 17.1474 53.2597 17.375 53.1183C17.6025 52.9769 17.7693 52.7452 17.8294 52.4836C17.8415 52.4353 17.8489 52.3855 17.8531 52.3351C17.8612 52.2375 17.8555 52.1384 17.8349 52.0425Z" fill="#76BC21"/>
<path d="M9.1591 46.6018C9.15055 46.5506 9.1386 46.4997 9.12271 46.4517C9.10221 46.3867 9.07559 46.325 9.04314 46.2671C9.01069 46.2088 8.97213 46.154 8.92773 46.1025C8.89514 46.0637 8.8578 46.0266 8.81883 45.9926C8.74497 45.9281 8.66119 45.8752 8.57184 45.8351C8.52568 45.8145 8.47856 45.7967 8.43036 45.7838C8.17237 45.7097 7.889 45.7433 7.65491 45.8739C7.42095 46.0047 7.24349 46.2282 7.17125 46.4866C7.15699 46.5342 7.14735 46.5836 7.14084 46.6337C7.12834 46.73 7.12916 46.8281 7.14491 46.9239C7.15346 46.9761 7.16555 47.0282 7.18184 47.0773C7.20248 47.1422 7.22909 47.2037 7.26155 47.2618C7.294 47.3201 7.33242 47.3749 7.37683 47.4264C7.40982 47.4659 7.44784 47.5035 7.48776 47.5381C7.56108 47.6019 7.64432 47.6541 7.73298 47.6939C7.77915 47.7145 7.82626 47.7325 7.87433 47.7452C8.13218 47.8193 8.41569 47.7858 8.64978 47.6551C8.88373 47.5245 9.06107 47.3008 9.13344 47.0425C9.1477 46.9948 9.15734 46.9454 9.16385 46.8952C9.17635 46.7978 9.17526 46.6986 9.1591 46.6018Z" fill="#76BC21"/>
<path d="M12.117 52.0372C12.1085 51.9861 12.0965 51.9351 12.0806 51.8871C12.0601 51.8223 12.0335 51.7607 12.0011 51.7026C11.9686 51.6444 11.93 51.5895 11.8856 51.5381C11.8532 51.4993 11.8157 51.4622 11.7767 51.4281C11.7029 51.3636 11.6191 51.3107 11.5298 51.2707C11.4836 51.2499 11.4365 51.2322 11.3883 51.2193C11.1304 51.1452 10.8469 51.1789 10.6128 51.3095C10.3788 51.4402 10.2014 51.6638 10.1291 51.9221C10.1149 51.9698 10.1052 52.0192 10.0987 52.0693C10.0862 52.1655 10.087 52.2637 10.1028 52.3595C10.1113 52.4116 10.1236 52.4638 10.1399 52.5128C10.1605 52.5776 10.1871 52.6391 10.2196 52.6972C10.252 52.7553 10.2904 52.8103 10.3349 52.8618C10.3678 52.9013 10.4059 52.9389 10.4457 52.9735C10.519 53.0373 10.6022 53.0896 10.6909 53.1293C10.737 53.1501 10.7842 53.1679 10.8322 53.1806C11.0902 53.2548 11.3736 53.2212 11.6077 53.0905C11.8416 52.9599 12.019 52.7362 12.0914 52.4779C12.1056 52.4302 12.1154 52.3808 12.1218 52.3306C12.1343 52.2333 12.1332 52.1339 12.117 52.0372Z" fill="#76BC21"/>
</svg>
