<svg width="50" height="50" viewBox="0 0 50 50" fill="none" xmlns="http://www.w3.org/2000/svg">
<path d="M48.9775 29.2974C48.0741 28.6516 47.021 28.2468 45.9176 28.1212C46.67 26.478 47.0483 24.6884 47.0253 22.8814C47.0127 22.6142 46.9009 22.3614 46.7117 22.1723C46.5225 21.9832 46.2695 21.8716 46.0023 21.8592C44.1952 21.8349 42.4053 22.2122 40.7618 22.9636C40.6356 21.8603 40.2305 20.8073 39.5847 19.9038C39.4167 19.6823 39.1692 19.5347 38.8945 19.4921C38.6198 19.4494 38.3392 19.5149 38.1118 19.6749C36.55 20.8404 35.2266 22.2949 34.2136 23.9594C33.6818 23.3439 33.0462 22.8264 32.3356 22.4304C32.0928 22.3083 31.8127 22.2827 31.5518 22.3589C31.2908 22.435 31.0685 22.6073 30.9296 22.8409C30.7872 23.0808 27.58 28.6366 31.2764 36.0877L25.7444 41.6159V25.0884C35.4532 21.8979 37.4895 14.3222 37.573 13.9933C37.6398 13.7299 37.6044 13.451 37.4738 13.2128C37.3432 12.9745 37.1271 12.7945 36.8691 12.7091C35.8245 12.4215 34.7357 12.3293 33.6575 12.4373C34.2902 10.0457 34.4319 7.5507 34.0742 5.1028C34.0263 4.82881 33.874 4.58406 33.6494 4.41999C33.4247 4.25592 33.1452 4.18529 32.8695 4.22295C31.4522 4.46631 30.1268 5.08761 29.0333 6.0213C28.2855 3.8496 27.0391 1.88333 25.394 0.280192C25.1963 0.099928 24.9383 0 24.6707 0C24.4031 0 24.1452 0.099928 23.9475 0.280192C22.3019 1.88303 21.0552 3.84938 20.3076 6.0213C19.214 5.08761 17.8886 4.46631 16.4713 4.22295C16.1956 4.18497 15.9159 4.25548 15.6912 4.4196C15.4665 4.58373 15.3142 4.82867 15.2666 5.1028C14.9077 7.55045 15.0482 10.0454 15.6796 12.4373C14.6015 12.3293 13.5127 12.4215 12.4681 12.7091C12.2101 12.7945 11.994 12.9745 11.8634 13.2128C11.7328 13.451 11.6973 13.7299 11.7642 13.9933C11.8476 14.3222 13.8845 21.8972 23.5928 25.0884V41.5521L18.1252 36.0859C21.8216 28.6348 18.6162 23.0783 18.472 22.8391C18.3331 22.6053 18.1106 22.4329 17.8496 22.3567C17.5885 22.2806 17.3082 22.3062 17.0654 22.4286C16.3552 22.8253 15.72 23.3434 15.1887 23.9594C14.1751 22.2959 12.8515 20.8425 11.2898 19.678C11.0624 19.518 10.7818 19.4524 10.5071 19.4951C10.2324 19.5378 9.98495 19.6854 9.81689 19.9068C9.17109 20.8104 8.766 21.8634 8.6398 22.9667C6.99599 22.2162 5.20631 21.839 3.39936 21.8623C3.13213 21.8747 2.87914 21.9863 2.68992 22.1754C2.50069 22.3644 2.38886 22.6173 2.37631 22.8845C2.35232 24.6913 2.72961 26.4809 3.48098 28.1243C2.37919 28.2498 1.32746 28.6535 0.424722 29.2974C0.203271 29.4654 0.0556172 29.7128 0.0128115 29.9874C-0.0299942 30.262 0.0353832 30.5425 0.195195 30.77C1.35992 32.3316 2.81372 33.655 4.47764 34.6685C3.86197 35.2002 3.34434 35.8356 2.94828 36.5461C2.82609 36.7888 2.8005 37.0689 2.8767 37.3297C2.95289 37.5906 3.12519 37.8129 3.35885 37.9517C5.22498 38.9264 7.30614 39.4167 9.41123 39.3776C11.914 39.3504 14.376 38.7412 16.6026 37.5983L23.5964 44.5886V48.3179C23.5964 48.6026 23.7096 48.8757 23.911 49.0771C24.1124 49.2785 24.3856 49.3916 24.6704 49.3916C24.9553 49.3916 25.2284 49.2785 25.4298 49.0771C25.6313 48.8757 25.7444 48.6026 25.7444 48.3179V44.6524L32.802 37.5965C35.0284 38.7399 37.4906 39.3491 39.9935 39.3758C42.0977 39.4135 44.1779 38.9228 46.0434 37.9487C46.277 37.8098 46.4493 37.5875 46.5255 37.3267C46.6017 37.0658 46.5761 36.7857 46.4539 36.543C46.0579 35.8326 45.5403 35.1971 44.9246 34.6655C46.5885 33.652 48.0423 32.3285 49.207 30.7669C49.3659 30.5397 49.4307 30.2599 49.388 29.986C49.3452 29.7121 49.1981 29.4654 48.9775 29.2974ZM5.57311 36.5988C6.03281 36.1363 6.53568 35.7189 7.07485 35.3521C7.23869 35.2431 7.36946 35.0912 7.45287 34.913C7.53629 34.7348 7.56915 34.5371 7.54787 34.3415C7.5266 34.1459 7.45201 33.9599 7.33223 33.8037C7.21245 33.6476 7.05209 33.5274 6.86864 33.4561C5.28988 32.7824 3.88028 31.7669 2.74146 30.4828C3.53776 30.2349 4.37396 30.1405 5.2055 30.2049C5.41346 30.2289 5.62392 30.1917 5.81099 30.0977C5.99806 30.0037 6.15358 29.8572 6.25843 29.676C6.36328 29.4948 6.41288 29.287 6.40114 29.078C6.38939 28.8691 6.31682 28.6681 6.19234 28.4998C5.28043 27.1825 4.72406 25.6522 4.57706 24.057C6.17274 24.2036 7.70347 24.7599 9.02091 25.6719C9.18904 25.7947 9.38924 25.8661 9.59719 25.8774C9.80513 25.8887 10.0119 25.8393 10.1923 25.7354C10.3727 25.6314 10.5191 25.4773 10.6136 25.2917C10.7081 25.1062 10.7466 24.8972 10.7246 24.6902C10.6594 23.8565 10.7539 23.0181 11.0032 22.22C12.2884 23.3587 13.3039 24.7693 13.976 26.3492C14.0471 26.5329 14.1674 26.6934 14.3237 26.8133C14.48 26.9332 14.6662 27.0078 14.8621 27.0289C15.0579 27.0501 15.2558 27.017 15.4341 26.9333C15.6124 26.8495 15.7642 26.7184 15.8729 26.5542C16.2399 26.0182 16.6553 25.5171 17.1139 25.0571C18.1255 28.1562 17.9093 31.5252 16.51 34.4698L9.71256 27.6727C9.51113 27.4712 9.23788 27.3579 8.95291 27.3578C8.66795 27.3577 8.3946 27.4707 8.19302 27.6721C7.99144 27.8735 7.87812 28.1467 7.87801 28.4316C7.87789 28.7165 7.99098 28.9897 8.1924 29.1913L14.9917 35.9853C10.689 37.8904 7.25343 37.1927 5.57311 36.5988ZM14.2515 14.5645C15.1959 14.5305 16.141 14.6032 17.0691 14.7811C17.2621 14.8202 17.4622 14.8054 17.6474 14.7384C17.8326 14.6715 17.9959 14.5549 18.1193 14.4015C18.2428 14.248 18.3217 14.0636 18.3474 13.8684C18.3731 13.6732 18.3447 13.4746 18.2652 13.2945C17.4246 11.1862 17.0806 8.91273 17.2599 6.6502C18.3387 7.14285 19.2961 7.86629 20.0646 8.76945C20.1946 8.93303 20.3696 9.05511 20.5681 9.12071C20.7665 9.18632 20.9798 9.19261 21.1818 9.13881C21.3837 9.085 21.5656 8.97345 21.7051 8.81782C21.8446 8.66218 21.9356 8.46924 21.967 8.26264C22.3491 6.18307 23.2815 4.24384 24.6674 2.6467C26.0533 4.24378 26.9857 6.18304 27.3677 8.26264C27.3991 8.46924 27.4901 8.66218 27.6296 8.81782C27.7691 8.97345 27.951 9.085 28.1529 9.13881C28.3549 9.19261 28.5682 9.18632 28.7666 9.12071C28.9651 9.05511 29.1401 8.93303 29.2702 8.76945C30.0412 7.8684 30.9987 7.14553 32.0766 6.65081C32.2576 8.91332 31.9132 11.187 31.0702 13.2945C30.9904 13.4746 30.9617 13.6732 30.9873 13.8685C31.0129 14.0639 31.0918 14.2484 31.2153 14.4019C31.3389 14.5553 31.5023 14.6719 31.6876 14.7387C31.873 14.8054 32.0732 14.8199 32.2663 14.7805C33.1939 14.6007 34.139 14.5279 35.0832 14.5633C34.224 16.5267 31.7802 20.6002 25.7395 22.8139V12.687C25.7395 12.4023 25.6263 12.1292 25.4249 11.9278C25.2235 11.7264 24.9504 11.6133 24.6655 11.6133C24.3807 11.6133 24.1075 11.7264 23.9061 11.9278C23.7047 12.1292 23.5915 12.4023 23.5915 12.687V22.8139C17.5539 20.5996 15.1089 16.5249 14.2515 14.5645ZM42.5336 33.4537C42.3499 33.5248 42.1892 33.645 42.0693 33.8012C41.9493 33.9574 41.8746 34.1436 41.8534 34.3394C41.8322 34.5352 41.8652 34.7331 41.9489 34.9113C42.0326 35.0896 42.1638 35.2414 42.328 35.3502C42.8664 35.719 43.3693 36.137 43.8303 36.5988C42.1488 37.1952 38.7126 37.8922 34.4106 35.9902L41.2098 29.1913C41.4055 28.9888 41.5138 28.7176 41.5114 28.4361C41.509 28.1545 41.3961 27.8852 41.197 27.6861C40.998 27.487 40.7286 27.374 40.447 27.3715C40.1654 27.369 39.8941 27.4772 39.6915 27.6727L32.8916 34.4691C30.9891 30.1675 31.6863 26.7321 32.2828 25.0528C32.7456 25.5123 33.1632 26.015 33.5299 26.5542C33.6389 26.718 33.7908 26.8487 33.9691 26.9321C34.1473 27.0155 34.3451 27.0484 34.5407 27.0271C34.7364 27.0058 34.9224 26.9312 35.0786 26.8115C35.2347 26.6917 35.355 26.5314 35.4262 26.348C36.1003 24.7697 37.1158 23.3603 38.3997 22.2212C38.6481 23.0176 38.7427 23.8541 38.6783 24.6859C38.6548 24.8933 38.6923 25.1031 38.7863 25.2896C38.8802 25.4761 39.0265 25.6311 39.2072 25.7357C39.388 25.8404 39.5953 25.89 39.8038 25.8787C40.0123 25.8674 40.213 25.7955 40.3813 25.6719C41.6987 24.7598 43.2295 24.2036 44.8252 24.057C44.6781 25.6522 44.1217 27.1825 43.2099 28.4998C43.087 28.6679 43.0156 28.868 43.0043 29.0759C42.993 29.2838 43.0424 29.4905 43.1464 29.6709C43.2504 29.8513 43.4045 29.9976 43.5901 30.0921C43.7757 30.1865 43.9847 30.2251 44.1918 30.203C45.0256 30.1375 45.8643 30.2321 46.6626 30.4816C45.5239 31.7664 44.1135 32.7816 42.5336 33.4537Z" fill="#76BC21"/>
</svg>
