<svg width="55" height="52" viewBox="0 0 55 52" fill="none" xmlns="http://www.w3.org/2000/svg">
<path d="M33.7918 45.0581C30.7221 48.1271 27.0943 49.801 23.1874 50.638C19.2805 51.196 15.0946 50.638 11.1877 48.964C8.39706 47.5691 5.88549 48.964 3.37392 50.359C2.81579 50.638 2.53673 50.917 1.97861 51.196C1.69954 51.475 1.14142 51.475 0.583289 51.196C0.0251631 50.359 -0.2539 49.522 0.304226 48.964C0.58329 48.4061 0.862353 47.8481 1.14142 47.2901C2.53673 44.7791 3.93205 42.5471 2.53673 40.0361C0.583289 36.1302 0.0251631 31.9452 0.862353 28.0392C1.42048 24.1333 3.37392 20.5063 6.44362 17.4373C10.3505 13.5314 15.3736 11.5784 20.3968 11.5784C23.4665 11.5784 26.5362 12.4154 29.3268 13.8104C30.7221 11.8574 32.1174 9.90441 32.9546 8.23042C33.7918 6.27744 34.3499 4.32446 34.3499 1.81348C34.3499 0.976491 34.9081 0.418496 35.7453 0.418496C36.5824 0.418496 37.1406 0.976491 37.1406 1.81348C37.1406 4.60346 36.5824 7.11443 35.4662 9.34641C34.629 11.2994 33.2337 12.9734 31.8384 15.2054C32.3965 15.4844 32.9546 16.0424 33.5127 16.3214L49.4193 0.418496C49.9775 -0.139499 50.8147 -0.139499 51.3728 0.418496C51.9309 0.976491 51.9309 1.81348 51.3728 2.37148L35.4662 18.2743C36.0243 18.8323 36.3034 19.3903 36.5824 19.9483C39.9312 17.4373 42.4428 15.4844 44.6753 14.3684C47.1868 12.9734 49.4193 12.1364 52.489 11.5784C53.3262 11.2994 53.8844 11.8574 54.1634 12.6944C53.6053 13.5314 53.0472 14.0894 52.489 14.3684C49.6984 14.9264 47.745 15.4844 45.5125 16.8793C43.28 17.9953 41.0475 19.6693 37.6987 22.4593C39.094 25.2493 39.9312 28.3182 39.9312 31.3872C39.6521 36.1302 37.6987 41.1521 33.7918 45.0581ZM11.4668 26.6443C11.1877 27.4812 10.3505 27.7602 9.79237 27.4812C8.95518 27.2022 8.67612 26.3653 8.95518 25.5283C9.51331 24.1333 10.3505 22.7383 11.4668 21.6223C12.583 20.7853 13.9783 19.6693 15.3736 19.1113C16.2108 18.8323 16.769 19.1113 17.3271 19.6693C17.6061 20.5063 17.3271 21.0643 16.769 21.6223C15.6527 22.1803 14.8155 22.7383 13.9783 23.5753C12.8621 24.6913 12.0249 25.5283 11.4668 26.6443ZM22.3502 21.0643C21.7921 20.7853 21.234 20.2273 21.513 19.3903C21.513 18.5533 22.3502 17.9953 22.9083 18.2743C23.4665 18.2743 23.7455 18.5533 24.3037 18.5533C24.5827 18.5533 25.1408 18.8323 25.699 19.1113C26.5362 19.3903 26.8152 20.2273 26.5362 21.0643C25.978 21.6223 25.1409 21.9013 24.5827 21.6223C24.3037 21.3433 23.7455 21.3433 23.4665 21.3433C23.1874 21.0643 22.9083 21.0643 22.3502 21.0643ZM8.118 19.1113C5.60643 21.9013 3.93205 24.9703 3.37392 28.3182C2.81579 31.6662 3.37392 35.2932 4.76924 38.6411C6.16455 41.4311 5.60643 43.9421 4.49017 46.4531C7.00174 45.3371 9.51331 44.7791 12.3039 46.1741C15.3736 47.8481 19.0015 48.1271 22.3502 47.5691C25.699 47.0111 28.7687 45.6161 31.2802 42.8261C34.629 39.4781 36.3034 35.2932 36.3034 31.1082C36.3034 26.9233 34.629 22.4593 31.5593 19.3903C28.2105 16.0424 24.0246 14.3684 19.8386 14.3684C15.6527 14.3684 11.4668 16.0424 8.118 19.1113Z" fill="#ED5C29"/>
</svg>
