<svg width="60" height="60" viewBox="0 0 60 60" fill="none" xmlns="http://www.w3.org/2000/svg">
<path d="M15.2581 56.3277C15.715 55.8696 15.715 55.1282 15.2581 54.6701C14.7999 54.2128 14.0583 54.2128 13.601 54.6701C13.1432 55.1282 13.1432 55.8696 13.601 56.3277C14.0579 56.7845 14.7999 56.7845 15.2581 56.3277Z" fill="#76BC21"/>
<path d="M11.9431 57.9833C11.4863 57.5251 10.7442 57.5251 10.286 57.9833C9.82915 58.4405 9.82915 59.1833 10.286 59.6401C10.7442 60.0982 11.4863 60.0982 11.9431 59.6401C12.4013 59.1833 12.4013 58.4405 11.9431 57.9833Z" fill="#76BC21"/>
<path d="M8.62919 49.7C8.17097 50.1567 8.17097 50.8995 8.62919 51.3567C9.0865 51.8143 9.829 51.8143 10.2863 51.3567C10.7445 50.8995 10.7445 50.1567 10.2863 49.7C9.829 49.2419 9.08604 49.2419 8.62919 49.7Z" fill="#76BC21"/>
<path d="M4.48605 53.8426C4.02874 54.3007 4.02874 55.0421 4.48605 55.5002C4.94428 55.9569 5.68586 55.9569 6.14409 55.5002C6.60094 55.0421 6.60094 54.3007 6.14409 53.8426C5.68586 53.3858 4.94382 53.3858 4.48605 53.8426Z" fill="#76BC21"/>
<path d="M2.00032 59.6401C2.45854 59.1833 2.45854 58.4405 2.00032 57.9833C1.54347 57.5251 0.800516 57.5251 0.343667 57.9833C-0.114556 58.4405 -0.114556 59.1833 0.343667 59.6401C0.800516 60.0982 1.54347 60.0982 2.00032 59.6401Z" fill="#76BC21"/>
<path d="M36.9673 0.0350684C35.4929 0.208062 34.2624 1.02772 33.4078 2.40618L27.3722 11.4833C27.0138 12.022 27.1602 12.7492 27.699 13.1071C28.2383 13.4654 28.9657 13.3189 29.3236 12.7803L33.3922 6.66145L53.3356 26.5996L38.1324 36.7037L23.2862 21.8611L24.1331 20.5874C24.4915 20.0488 24.345 19.3215 23.8058 18.9637C23.267 18.6053 22.5396 18.7518 22.1812 19.2909L16.9013 27.2321C15.7404 26.9603 14.4761 27.2875 13.6009 28.1625C12.6533 29.1103 12.3649 30.4522 12.7137 31.6421L9.08732 32.8503C8.91245 32.9084 8.74903 33.0132 8.6291 33.1331C6.99855 34.7633 6.50279 37.268 7.23247 40.186C7.90904 42.8926 9.5817 45.6834 11.9433 48.0444C15.897 51.9962 22.9081 55.2273 26.8178 51.3953C26.8192 51.3935 26.821 51.3921 26.8224 51.3908C26.9662 51.2498 27.0719 51.1052 27.1406 50.8992L28.35 47.2719C29.569 47.6288 30.907 47.3089 31.8294 46.3868C32.7042 45.5122 33.032 44.2491 32.7601 43.0875L57.5918 26.5845C58.9715 25.7296 59.7918 24.499 59.9649 23.0244C60.4652 18.7632 55.5177 13.2082 51.152 8.84446C46.7877 4.48027 41.2305 -0.465148 36.9673 0.0350684ZM36.1411 38.0268L31.514 41.1018L18.8866 28.4774L21.9628 23.8519L36.1411 38.0268ZM14.1126 33.6457L26.345 45.8747L25.5169 48.3602L11.627 34.4736L14.1126 33.6457ZM13.5999 46.3877C10.0674 42.855 8.46339 38.3526 9.61466 35.7756L24.2145 50.372C21.6369 51.523 17.1334 49.9194 13.5999 46.3877ZM30.1723 44.7301C29.715 45.1868 28.9712 45.1868 28.5143 44.7301L15.258 31.4768C14.8002 31.0187 14.8002 30.2773 15.258 29.8192C15.6997 29.378 16.444 29.3488 16.9146 29.8192L30.1719 43.0738C30.6388 43.5397 30.6173 44.2848 30.1723 44.7301ZM57.6372 22.7512C57.5461 23.5265 57.1355 24.1141 56.3449 24.6006C56.333 24.6079 56.3215 24.6152 56.3101 24.623L55.3264 25.2765L34.7161 4.67111C34.7161 4.67111 35.3849 3.66427 35.3922 3.65283C35.8783 2.86292 36.4656 2.45286 37.2406 2.36178C40.9247 1.93113 47.3746 8.38131 49.4949 10.5012C51.6157 12.621 58.0693 19.0712 57.6372 22.7512Z" fill="#76BC21"/>
<path d="M24.9503 15.2244C24.4935 15.6817 24.4935 16.4231 24.9503 16.8812C25.4085 17.3379 26.1501 17.3379 26.6083 16.8812C27.0651 16.4231 27.0651 15.6817 26.6083 15.2244C26.1501 14.7663 25.4085 14.7663 24.9503 15.2244Z" fill="#76BC21"/>
</svg>
