<svg width="44" height="44" viewBox="0 0 44 44" fill="none" xmlns="http://www.w3.org/2000/svg">
<path d="M39.149 0H29.0239C28.3249 0 27.7582 0.566539 27.7582 1.26535C27.7582 1.96416 28.3249 2.5307 29.0239 2.5307H39.149C39.9438 2.5307 40.6678 3.25439 40.6678 4.04912C40.6678 4.81305 39.9581 5.48318 39.149 5.48318C38.8852 5.48318 19.3086 5.48318 18.5613 5.48318C7.5773 5.48318 -0.956308 15.0476 0.0863251 25.767C0.983157 34.9875 8.92858 42.4314 18.5613 42.4314H25.5553L30.311 43.1383C31.496 43.3273 32.6829 42.9733 33.5783 42.2111C35.3274 40.7222 35.5205 38.116 33.9279 36.442C35.4908 34.7994 35.349 32.222 33.6228 30.7524C32.7136 29.9785 31.512 29.6422 30.3228 29.8283L25.5662 30.4527H19.5738C16.9219 30.4527 14.7644 28.2957 14.7644 25.6444C14.7644 22.9931 16.9219 20.8361 19.5738 20.8361H20.9238C28.2669 20.8361 34.3149 15.1911 34.9571 8.01387H39.149C41.3146 8.01387 43.199 6.26617 43.199 4.04912C43.199 1.85424 41.3444 0 39.149 0ZM6.11473 13.9778L13.568 21.4293C12.9588 22.2944 12.5317 23.2962 12.3427 24.379H2.5382C2.45147 20.6324 3.7209 16.9344 6.11473 13.9778ZM18.3081 32.8739V39.8976C15.1877 39.8476 12.2448 38.8764 9.76492 37.2405L15.3579 31.6488C16.223 32.2579 17.2252 32.685 18.3081 32.8739ZM2.80576 26.9097H12.3427C12.5317 27.9925 12.9588 28.9944 13.568 29.8594L7.75162 35.6745C5.24946 33.3948 3.45908 30.3454 2.80576 26.9097ZM25.6488 32.9834C25.7877 32.9834 30.6978 32.3312 30.7065 32.3298C31.1685 32.2552 31.6333 32.3825 31.9818 32.6792C33.0152 33.559 32.342 35.1767 30.9628 35.1767H28.3489C27.6499 35.1767 27.0832 35.7432 27.0832 36.442C27.0832 37.1408 27.6499 37.7074 28.3489 37.7074H30.9628C31.8012 37.7074 32.4833 38.3505 32.4833 39.1411C32.4833 39.9816 31.708 40.7815 30.6909 40.6362C25.4186 39.8526 25.7831 39.9007 25.6488 39.9007H20.8394V32.9834H25.6488ZM20.9238 18.3054H19.5738C18.006 18.3054 16.5517 18.7995 15.3578 19.6399L7.85709 12.1409C10.7881 9.50175 14.6076 8.01387 18.5612 8.01387H32.4144C31.7822 13.7934 26.8702 18.3054 20.9238 18.3054Z" fill="#ED5C29"/>
<path d="M25.6766 11.095C25.0278 10.6671 24.1908 10.916 23.8584 11.5512C23.3527 12.4742 24.1558 13.587 25.221 13.3877C26.3536 13.1504 26.5889 11.695 25.6766 11.095Z" fill="#ED5C29"/>
</svg>
