<svg width="79" height="80" viewBox="0 0 79 80" fill="none" xmlns="http://www.w3.org/2000/svg">
<path d="M78.3636 39.6813C78.3636 61.5988 60.8234 79.3625 39.1818 79.3625C17.5402 79.3625 0 61.5988 0 39.6813C0 17.7638 17.5402 0 39.1818 0C60.8234 0 78.3636 17.7638 78.3636 39.6813Z" fill="#111C4E"/>
<path d="M50.2646 22.7133C50.2646 22.7133 49.2174 13.4337 44.1561 15.1129C39.0947 16.792 37.1749 22.8901 37.1749 26.7787C37.1749 30.6673 44.8542 41.0958 45.6396 42.0679C46.3377 42.9517 48.8684 44.4541 48.8684 44.4541C48.8684 44.4541 55.675 38.6212 58.7292 34.4675C61.7835 30.3137 64.6632 26.5135 62.6561 23.5971C60.6491 20.6806 59.0783 18.648 56.8967 19.4434C54.7151 20.1504 51.4863 22.183 51.4863 22.183L50.2646 22.7133Z" fill="#76BC21"/>
<path d="M53.9298 45.6914C53.1444 45.4262 52.3591 45.0727 51.5737 44.6308C54.4534 42.333 56.7223 39.9469 58.9039 37.5607C63.878 32.0813 68.154 24.8344 63.4417 19.9737C58.8166 15.1129 54.2789 18.5596 52.7081 19.4434C51.1374 20.4156 51.661 18.1178 51.2246 16.527C50.6138 14.7594 48.9557 12.8151 44.8543 12.7268C41.1019 12.6384 35.6043 17.4991 35.6915 26.6903C35.2552 26.0717 34.5571 25.3647 34.208 24.9228C33.7717 24.2158 32.55 25.0112 32.55 25.0112C32.55 25.0112 32.8991 24.5693 31.5028 22.625C30.1939 20.6807 24.2599 21.0342 20.0712 25.7182C15.8825 30.4022 14.3117 40.1236 18.6749 41.0958C21.1184 41.626 24.1726 40.1236 24.7835 39.505C23.649 40.8306 18.6749 46.4868 16.4933 47.3705C14.0499 48.3427 14.6608 45.8681 14.8353 44.7192C15.0098 43.5703 14.1372 43.4819 13.2645 43.9238C13.2645 43.9238 11.8683 44.9843 10.9957 45.603C10.123 46.31 9.59943 47.017 9.68669 47.9008C9.77396 48.7846 10.3848 53.115 15.6207 51.8778C20.682 50.7289 27.7505 39.1515 26.9651 38.9747C27.2269 39.0631 26.3542 42.5098 26.3542 44.2773C26.4415 48.1659 28.6231 54.3523 37.0878 52.2313C41.9746 50.994 45.6397 48.8729 48.7812 46.7519C50.6138 47.8124 52.2718 48.5194 53.5808 48.9613C58.4676 50.5521 61.2601 50.0218 61.7836 48.9613C61.9582 48.0775 60.5619 48.1659 53.9298 45.6914ZM43.8944 17.1456C47.4723 15.6432 49.5666 20.5923 48.5194 23.2436C47.4723 25.8949 47.4723 25.6298 48.5194 25.8066C49.6539 25.9833 49.7411 24.8344 52.1845 22.7134C54.6279 20.5923 57.5077 19.6202 60.0384 21.8296C62.569 24.039 61.8709 27.8392 56.635 34.114C53.5808 37.7374 51.3119 39.6817 48.1704 42.2447C43.4581 38.6212 40.0548 33.7605 39.5312 28.5462C38.9203 22.5366 40.4038 18.648 43.8944 17.1456ZM30.2811 27.4857C30.1066 29.6951 27.0523 35.2629 24.4344 37.3839C21.8165 39.505 18.5877 41.0074 19.3731 36.6769C20.2457 31.5511 24.6962 26.7787 26.4415 25.8066C28.274 24.9228 30.4557 25.3647 30.2811 27.4857ZM37.4368 48.431C32.8991 49.4032 30.7175 45.0727 31.1538 40.212C31.5028 36.4118 34.8189 29.0765 35.6915 27.7508C35.6915 28.4579 35.7788 29.2533 35.8661 30.0486C36.7387 36.5885 40.8401 41.3609 45.0288 44.6308C42.0618 46.5751 39.3566 47.9892 37.4368 48.431Z" fill="white"/>
<path d="M19.8963 57.6216H17.6274V62.3057H16.0566V56.2959H19.8963V57.6216Z" fill="white"/>
<path d="M26.965 59.3011C26.965 60.1849 26.7032 60.9803 26.0924 61.5989C25.4815 62.2175 24.6961 62.571 23.7362 62.571C22.7763 62.571 21.9909 62.2175 21.3801 61.5989C20.7692 60.9803 20.5074 60.1849 20.5074 59.3011C20.5074 58.4174 20.7692 57.622 21.3801 57.0034C21.9909 56.3848 22.7763 56.0312 23.7362 56.0312C24.6961 56.0312 25.4815 56.3848 26.0924 57.0034C26.7032 57.622 26.965 58.329 26.965 59.3011ZM25.307 59.3011C25.307 58.6825 25.1325 58.2406 24.8707 57.9755C24.6089 57.7104 24.2598 57.5336 23.7362 57.5336C23.2999 57.5336 22.9509 57.7104 22.6018 57.9755C22.34 58.329 22.1655 58.7709 22.1655 59.3011C22.1655 59.9198 22.34 60.3617 22.6018 60.6268C22.8636 60.8919 23.2126 61.0687 23.7362 61.0687C24.1726 61.0687 24.5216 60.8919 24.8707 60.6268C25.1325 60.2733 25.307 59.8314 25.307 59.3011Z" fill="white"/>
<path d="M32.2882 57.622H30.6302V62.306H29.0594V57.622H27.4014V56.208H32.2882V57.622Z" fill="white"/>
<path d="M39.1822 59.3011C39.1822 60.1849 38.9204 60.9803 38.3095 61.5989C37.6987 62.2175 36.9133 62.571 35.9534 62.571C34.9935 62.571 34.2081 62.2175 33.5973 61.5989C32.9864 60.9803 32.7246 60.1849 32.7246 59.3011C32.7246 58.4174 32.9864 57.622 33.5973 57.0034C34.2081 56.3848 34.9935 56.0312 35.9534 56.0312C36.9133 56.0312 37.6987 56.3848 38.3095 57.0034C38.9204 57.622 39.1822 58.329 39.1822 59.3011ZM37.5241 59.3011C37.5241 58.6825 37.3496 58.2406 37.0878 57.9755C36.826 57.7104 36.477 57.5336 35.9534 57.5336C35.5171 57.5336 35.168 57.7104 34.819 57.9755C34.5572 58.329 34.3826 58.7709 34.3826 59.3011C34.3826 59.9198 34.5572 60.3617 34.819 60.6268C35.0807 60.8919 35.4298 61.0687 35.9534 61.0687C36.3897 61.0687 36.7388 60.8919 37.0878 60.6268C37.4369 60.2733 37.5241 59.8314 37.5241 59.3011Z" fill="white"/>
<path d="M45.3777 60.6265C45.3777 61.1567 45.2031 61.5986 44.8541 61.8638C44.505 62.1289 43.8942 62.3057 43.1088 62.3057H40.5781V56.2959H42.9343C44.3305 56.2959 45.0286 56.8262 45.0286 57.9751C45.0286 58.2402 44.9413 58.417 44.8541 58.6821C44.6795 58.9473 44.505 59.124 44.3305 59.2124C44.6795 59.3008 44.9413 59.4775 45.1159 59.8311C45.2904 60.0078 45.3777 60.2729 45.3777 60.6265ZM43.5451 58.0635C43.5451 57.6216 43.3706 57.4448 42.847 57.4448H42.0616V58.6821H42.7597C43.2833 58.6821 43.5451 58.5054 43.5451 58.0635ZM43.8069 60.3613C43.8069 59.9194 43.5451 59.7427 43.0215 59.7427H42.1489V61.0684H43.0215C43.5451 61.0684 43.8069 60.8032 43.8069 60.3613Z" fill="white"/>
<path d="M52.097 62.306H50.6135V59.0361L46.8611 62.6595V56.2964H48.4318V59.3896L52.1842 55.9429V62.306H52.097Z" fill="white"/>
<path d="M57.8563 57.622H56.1983V62.306H54.6275V57.622H52.9695V56.208H57.769V57.622H57.8563Z" fill="white"/>
<path d="M63.6161 60.3613C63.6161 61.5986 62.8307 62.3057 61.3472 62.3057H58.8165V56.2959H60.3873V58.5054H61.3472C62.1326 58.5054 62.7434 58.6821 63.0925 59.124C63.4415 59.3892 63.6161 59.8311 63.6161 60.3613ZM62.0453 60.3613C62.0453 60.1846 61.958 60.0078 61.7835 59.9194C61.609 59.7427 61.4345 59.6543 61.0854 59.6543H60.3V61.0684H61.0854C61.6962 61.0684 62.0453 60.8032 62.0453 60.3613Z" fill="white"/>
</svg>
