<svg width="42" height="55" viewBox="0 0 42 55" fill="none" xmlns="http://www.w3.org/2000/svg">
<path d="M26.731 49.3741C26.9183 50.0732 26.5771 50.6641 25.8778 50.8515C25.1785 51.0388 24.5874 50.6976 24.4 49.9985C24.2126 49.2994 24.0253 48.6002 23.9003 48.1342C20.5243 45.7915 18.1599 44.4267 15.9829 43.7611L13.0485 46.7951C12.6448 47.153 11.9455 47.3403 11.292 46.7661C10.934 46.3625 10.7466 45.6633 11.321 45.0099L13.2772 42.9873C12.453 42.7085 11.4581 42.7252 10.6339 42.4465C10.1053 42.3383 9.6848 41.7017 9.73052 40.9401C9.8387 40.4116 10.4755 39.9912 11.2373 40.0369C13.585 40.4071 15.4665 40.9021 17.4104 41.6302L16.9108 39.7659C16.4278 38.8962 16.7691 38.3052 17.4684 38.1179C18.1677 37.9306 18.7588 38.2718 18.9462 38.9709L19.9455 42.6995C20.8321 43.2113 21.9519 43.6607 22.901 44.4055C21.8392 40.4438 21.0106 36.4197 20.5399 32.7992C19.8863 32.225 19.0621 31.9462 18.4085 31.372L15.0872 35.7585C14.746 36.3495 13.9842 36.3038 13.3931 35.9626C12.802 35.6214 12.8477 34.8598 13.189 34.2689L16.3397 30.1778C16.0441 30.0072 15.5155 29.899 15.2199 29.7285C13.276 29.0004 11.0989 28.3347 9.15495 27.6066C8.3932 27.5609 7.97273 26.9242 8.31401 26.3332C8.35973 25.5717 8.99656 25.1513 9.58767 25.4925C10.8781 25.6464 11.9978 26.0957 13.1176 26.5451L12.2432 23.2825C12.0558 22.5834 12.3971 21.9924 13.0964 21.8051C13.7956 21.6177 14.3867 21.9589 14.5741 22.6581L15.8233 27.3189L15.8857 27.5519L16.4144 27.6601C17.5966 28.3425 18.7788 29.0248 20.2566 29.8778C20.2398 28.8832 19.99 27.9511 19.9733 26.9565C19.9733 26.9565 19.9733 26.9565 19.9108 26.7234C19.7692 25.2627 19.69 24.0351 19.5483 22.5744L19.6565 22.0459C19.6565 22.0459 19.594 21.8128 19.3609 21.8753C18.8156 20.7725 18.0371 19.7322 17.5542 18.8625L12.2387 19.5371C11.7725 19.662 11.1189 19.0878 10.994 18.6217C10.8066 17.9226 11.381 17.2692 12.0803 17.0818L15.7016 16.6113C14.6901 15.6334 13.7409 14.8886 12.5587 14.2062C11.9052 13.6319 11.9509 12.8704 12.2922 12.2794C12.6334 11.6884 13.3327 11.5011 13.9238 11.8423C14.5149 12.1835 15.1061 12.5247 15.7596 13.0989L16.9541 11.0305C17.1247 10.7351 18.0571 10.4853 18.6482 10.8265C18.9438 10.9971 19.1936 11.9292 19.0854 12.4578L17.4872 14.8841L17.7828 15.0547C18.4988 15.8619 19.1524 16.4362 19.6977 17.5389C19.9431 14.7257 20.2509 12.1455 21.0249 9.44048L19.5259 3.84751C19.3385 3.14839 19.6798 2.55742 20.3791 2.3701C21.0784 2.18277 21.6695 2.52396 21.8569 3.22308L22.419 5.32045C23.1015 4.13851 23.551 3.01902 24.4042 1.54161C24.7454 0.950639 25.4447 0.76331 26.0358 1.1045C26.6269 1.4457 26.8143 2.14482 26.473 2.73579C25.1079 5.09966 24.0384 7.63412 23.435 10.0437C23.8388 9.68577 24.4756 9.2654 24.9418 9.14052C26.2154 8.29978 27.7847 7.62964 29.4163 7.19254C29.945 7.30069 30.5361 7.64189 30.7235 8.34101C30.9108 9.04013 30.5696 9.6311 29.8703 9.81842C29.171 10.0058 28.7048 10.1306 28.068 10.551L31.319 12.4276C31.9102 12.7688 32.0975 13.4679 31.7563 14.0589C31.415 14.6498 30.7157 14.8372 30.1246 14.496L25.3957 11.7664C24.5883 12.4823 23.4852 13.0275 22.5071 14.0389C22.1993 16.619 21.954 19.4322 22.0042 22.4161C22.0667 22.6491 21.9585 23.1776 22.0209 23.4107C22.254 23.3482 22.6578 22.9903 23.0615 22.6324C23.2321 22.3369 23.6983 22.212 24.1021 21.8541C24.972 21.3713 26.075 20.826 27.2405 20.5138L28.7762 17.8544C29.1175 17.2635 29.8168 17.0761 30.4079 17.4173C30.999 17.7585 31.1864 18.4577 30.8451 19.0486L29.9919 20.526L33.6924 21.2831C34.2836 21.6243 34.704 22.261 34.5958 22.7895C34.4877 23.318 33.8508 23.7384 33.0891 23.6927L28.0981 22.7817C27.3989 22.9691 26.9327 23.094 26.2958 23.5143L28.0402 26.2941C28.4606 26.9308 28.1194 27.5217 27.7156 27.8797C27.0788 28.3 26.4877 27.9588 26.1297 27.5552L24.3854 24.7754C23.5779 25.4913 23.0035 26.1447 22.2585 27.0936C22.4626 28.7873 22.6043 30.248 22.8084 31.9417C23.1999 34.3346 23.5289 36.4944 24.2159 39.0578C24.8985 37.8759 25.8766 36.8646 26.6216 35.9157L26.9584 31.5793C27.0041 30.8178 27.6409 30.3974 28.1696 30.5055C28.9313 30.5513 29.3518 31.1879 29.2436 31.7165L29.1689 34.2342C31.0169 32.74 33.2854 31.8826 35.3208 31.0875C36.0201 30.9002 36.6112 31.2414 36.9692 31.6451C37.1566 32.3442 36.8153 32.9351 36.4116 33.2931C35.7123 33.4804 34.8424 33.9632 34.2056 34.3836L37.7979 35.6692C38.389 36.0104 38.8095 36.6471 38.4682 37.238C38.1269 37.829 37.4901 38.2494 36.899 37.9082L31.5958 35.832C31.1921 36.1899 30.7259 36.3148 30.3221 36.6728C29.9184 37.0307 29.5147 37.3886 29.344 37.6841C28.8154 37.5759 28.8778 37.809 28.6447 37.8714C27.2629 39.2407 26.1766 40.7805 24.9821 42.8489C25.5443 44.9463 26.1064 47.0437 26.731 49.3741Z" fill="#76BC21"/>
</svg>
