<svg width="64" height="63" viewBox="0 0 64 63" fill="none" xmlns="http://www.w3.org/2000/svg">
<path d="M28.3687 36.1372C26.4345 36.1372 24.861 37.7104 24.861 39.644C24.861 41.5777 26.4345 43.1508 28.3687 43.1508C30.3028 43.1508 31.8763 41.5777 31.8763 39.644C31.8763 37.7104 30.3028 36.1372 28.3687 36.1372ZM28.3687 41.3052C27.4525 41.3052 26.7072 40.56 26.7072 39.644C26.7072 38.7281 27.4525 37.9829 28.3687 37.9829C29.2848 37.9829 30.0302 38.7281 30.0302 39.644C30.0302 40.56 29.285 41.3052 28.3687 41.3052ZM27.5596 54.0856C27.0498 54.0856 26.6365 54.4988 26.6365 55.0085C26.6365 55.5183 27.0498 55.9313 27.5596 55.9313C28.0693 55.9313 28.4826 55.5183 28.4826 55.0085C28.4826 54.4988 28.0693 54.0856 27.5596 54.0856ZM32.1749 47.6258C32.1749 48.1355 32.5882 48.5486 33.0979 48.5486C33.6077 48.5486 34.021 48.1355 34.021 47.6258C34.021 47.1161 33.6077 46.7029 33.0979 46.7029C32.5882 46.7029 32.1749 47.1161 32.1749 47.6258ZM24.4918 45.1812C23.982 45.1812 23.5688 45.5944 23.5688 46.1041C23.5688 46.6137 23.982 47.0269 24.4918 47.0269C25.0016 47.0269 25.4149 46.6137 25.4149 46.1041C25.4149 45.5944 25.0016 45.1812 24.4918 45.1812ZM7.25229 37.4745C6.74251 37.4745 6.32923 37.8877 6.32923 38.3973C6.32923 38.9071 6.74251 39.3202 7.25229 39.3202C7.76206 39.3202 8.17534 38.9071 8.17534 38.3973C8.17534 37.8877 7.76206 37.4745 7.25229 37.4745ZM13.5997 30.6003C11.6656 30.6003 10.0921 32.1735 10.0921 34.1071C10.0921 36.0408 11.6656 37.6139 13.5997 37.6139C15.5338 37.6139 17.1074 36.0408 17.1074 34.1071C17.1074 32.1735 15.5338 30.6003 13.5997 30.6003ZM13.5997 35.7681C12.6836 35.7681 11.9382 35.0229 11.9382 34.107C11.9382 33.1912 12.6836 32.446 13.5997 32.446C14.5159 32.446 15.2612 33.1912 15.2612 34.107C15.2612 35.0231 14.516 35.7681 13.5997 35.7681ZM19.8765 36.0349C19.3668 36.0349 18.9535 36.4481 18.9535 36.9577C18.9535 37.4674 19.3668 37.8806 19.8765 37.8806C20.3863 37.8806 20.7996 37.4674 20.7996 36.9577C20.7996 36.4481 20.3863 36.0349 19.8765 36.0349ZM25.7135 31.9375C26.2232 31.9375 26.6365 31.5244 26.6365 31.0146C26.6365 30.505 26.2232 30.0918 25.7135 30.0918C25.2037 30.0918 24.7904 30.505 24.7904 31.0146C24.7904 31.5243 25.2037 31.9375 25.7135 31.9375ZM48.1837 17.4725C48.1837 16.9628 47.7704 16.5496 47.2606 16.5496C46.7508 16.5496 46.3375 16.9628 46.3375 17.4725C46.3375 17.9821 46.7508 18.3953 47.2606 18.3953C47.7704 18.3953 48.1837 17.9821 48.1837 17.4725ZM36.3685 7.50578C34.4344 7.50578 32.8609 9.07891 32.8609 11.0126C32.8609 12.9462 34.4344 14.5194 36.3685 14.5194C38.3026 14.5194 39.8761 12.9462 39.8761 11.0126C39.8761 9.07891 38.3026 7.50578 36.3685 7.50578ZM36.3685 12.6737C35.4523 12.6737 34.707 11.9285 34.707 11.0126C34.707 10.0966 35.4523 9.35146 36.3685 9.35146C37.2847 9.35146 38.03 10.0966 38.03 11.0126C38.03 11.9285 37.2848 12.6737 36.3685 12.6737ZM47.2606 7.18955C47.2606 6.6799 46.8473 6.26671 46.3375 6.26671C45.8278 6.26671 45.4145 6.6799 45.4145 7.18955C45.4145 7.6992 45.8278 8.11239 46.3375 8.11239C46.8473 8.11239 47.2606 7.6992 47.2606 7.18955ZM38.03 19.4002C38.03 19.91 38.4433 20.3231 38.9531 20.3231C39.4628 20.3231 39.8761 19.91 39.8761 19.4002C39.8761 18.8906 39.4628 18.4774 38.9531 18.4774C38.4433 18.4774 38.03 18.8906 38.03 19.4002ZM59.9247 9.40129C59.6528 8.97014 59.0828 8.84082 58.6516 9.11287C58.2204 9.38468 58.0911 9.95463 58.3631 10.3857C60.1981 13.2952 61.168 16.6606 61.168 20.1179C61.168 30.1933 52.9692 38.3902 42.8914 38.3902C41.7779 38.3902 40.668 38.2892 39.5838 38.0912C37.7188 31.0128 32.083 25.4488 24.9633 23.6843C24.7326 22.5149 24.615 21.3179 24.615 20.1179C24.615 10.0426 32.8139 1.84568 42.8916 1.84568C47.8109 1.84568 52.4253 3.7711 55.8848 7.26731C56.2433 7.62968 56.8278 7.63264 57.1901 7.27433C57.5526 6.9159 57.5558 6.33155 57.1973 5.96931C53.388 2.11995 48.3076 0 42.8914 0C31.7958 0 22.7688 9.0249 22.7688 20.1179C22.7688 21.1868 22.8551 22.2534 23.0221 23.3042C22.075 23.167 21.1071 23.0945 20.1227 23.0945C9.02825 23.0945 0.00221534 32.1172 0 43.2084C0.00147689 43.4533 0.10289 43.7354 0.334024 43.9231L23.103 62.7871C23.301 62.9127 23.4846 63.0475 23.8625 62.9836C33.3554 61.1992 40.2452 52.8844 40.2452 43.2125C40.2452 42.1286 40.158 41.0648 39.9921 40.027C40.9483 40.1648 41.9187 40.2359 42.8913 40.2359C53.987 40.2359 63.014 31.211 63.014 20.1179C63.0141 16.3118 61.9458 12.606 59.9247 9.40129ZM24.609 60.9298C24.5659 59.8076 24.4036 58.1573 23.9017 56.2793C22.8999 52.5301 20.9869 49.3585 18.216 46.8524C17.5801 46.2774 16.9034 45.744 16.2051 45.2671C15.7838 44.9797 15.2097 45.0878 14.9222 45.5086C14.6347 45.9296 14.7428 46.5038 15.1638 46.7913C15.7933 47.2211 16.4035 47.7022 16.9775 48.2212C21.3292 52.1569 22.4383 57.2033 22.7005 60.0553L3.11575 43.8303C5.08581 43.6636 8.24734 43.6903 11.5436 44.919C11.6499 44.9586 11.7588 44.9774 11.866 44.9774C12.2404 44.9774 12.5925 44.7481 12.7309 44.3767C12.909 43.8992 12.6662 43.3678 12.1886 43.1897C7.89203 41.588 3.87746 41.8264 1.8807 42.1069C2.45497 32.5449 10.4167 24.9402 20.1228 24.9402C30.2005 24.9402 38.3994 33.1371 38.3994 43.2125C38.3992 51.623 32.6632 58.903 24.609 60.9298ZM29.098 18.9942C29.098 19.5038 29.5113 19.917 30.0211 19.917C30.5308 19.917 30.9441 19.5038 30.9441 18.9942C30.9441 18.4844 30.5308 18.0713 30.0211 18.0713C29.5113 18.0713 29.098 18.4845 29.098 18.9942ZM40.8557 28.038C40.8557 29.9717 42.4292 31.5448 44.3633 31.5448C46.2974 31.5448 47.8709 29.9717 47.8709 28.038C47.8709 26.1044 46.2974 24.5312 44.3633 24.5312C42.4292 24.5312 40.8557 26.1044 40.8557 28.038ZM46.0248 28.038C46.0248 28.954 45.2795 29.6991 44.3633 29.6991C43.4471 29.6991 42.7018 28.954 42.7018 28.038C42.7018 27.1221 43.4471 26.3769 44.3633 26.3769C45.2795 26.3769 46.0248 27.1221 46.0248 28.038ZM54.9436 24.5312C54.9436 25.0409 55.3569 25.4541 55.8667 25.4541C56.3765 25.4541 56.7898 25.0409 56.7898 24.5312C56.7898 24.0214 56.3765 23.6084 55.8667 23.6084C55.3569 23.6084 54.9436 24.0216 54.9436 24.5312ZM58.3373 16.5496C58.3373 14.616 56.7638 13.0428 54.8297 13.0428C52.8956 13.0428 51.3221 14.616 51.3221 16.5496C51.3221 18.4833 52.8956 20.0564 54.8297 20.0564C56.7638 20.0564 58.3373 18.4833 58.3373 16.5496ZM54.8297 18.2107C53.9135 18.2107 53.1682 17.4656 53.1682 16.5496C53.1682 15.6337 53.9135 14.8885 54.8297 14.8885C55.7458 14.8885 56.4912 15.6337 56.4912 16.5496C56.4912 17.4656 55.746 18.2107 54.8297 18.2107ZM49.4053 31.9139C49.4053 32.4236 49.8186 32.8368 50.3283 32.8368C50.8381 32.8368 51.2514 32.4236 51.2514 31.9139C51.2514 31.4042 50.8381 30.9911 50.3283 30.9911C49.8186 30.9911 49.4053 31.4043 49.4053 31.9139Z" fill="#ED5C29"/>
</svg>
