<svg width="102" height="102" viewBox="0 0 102 102" fill="none" xmlns="http://www.w3.org/2000/svg">
<path d="M102 51C102 79.1693 79.1693 102 51 102C22.8307 102 0 79.1693 0 51C0 22.8307 22.8307 0 51 0C79.1693 0 102 22.8307 102 51Z" fill="#111C4E"/>
<path d="M65.4259 29.1916C65.4259 29.1916 64.0629 17.2651 57.4749 19.4233C50.8869 21.5814 48.3881 29.4188 48.3881 34.4166C48.3881 39.4144 58.3836 52.8175 59.4059 54.0669C60.3146 55.2028 63.6086 57.1337 63.6086 57.1337C63.6086 57.1337 72.4682 49.6371 76.4437 44.2985C80.4192 38.96 84.1676 34.0758 81.5551 30.3275C78.9426 26.5792 76.8981 23.9667 74.0584 24.989C71.2188 25.8977 67.0161 28.5101 67.0161 28.5101L65.4259 29.1916Z" fill="#76BC21"/>
<path d="M70.1961 58.7242C69.1738 58.3834 68.1516 57.9291 67.1293 57.3611C70.8776 54.4079 73.8309 51.3411 76.6705 48.2743C83.1449 41.232 88.7106 31.9179 82.577 25.6707C76.5569 19.4235 70.6505 23.8533 68.6059 24.9892C66.5614 26.2386 67.2429 23.2854 66.6749 21.2409C65.8799 18.9692 63.7217 16.4703 58.3832 16.3567C53.499 16.2431 46.3431 22.4903 46.4567 34.3032C45.8888 33.5081 44.9801 32.5994 44.5257 32.0315C43.9578 31.1228 42.3676 32.1451 42.3676 32.1451C42.3676 32.1451 42.8219 31.5772 41.0046 29.0783C39.3008 26.5794 31.5769 27.0337 26.1248 33.0538C20.6727 39.0738 18.6282 51.5683 24.3075 52.8177C27.4879 53.4992 31.4634 51.5683 32.2585 50.7732C30.7818 52.477 24.3075 59.7464 21.4678 60.8823C18.2874 62.1317 19.0825 58.9513 19.3097 57.4747C19.5369 55.9981 18.401 55.8845 17.2651 56.4525C17.2651 56.4525 15.4478 57.8155 14.3119 58.6106C13.1761 59.5193 12.4945 60.428 12.6081 61.5638C12.7217 62.6997 13.5168 68.2654 20.332 66.6752C26.9199 65.1986 36.1204 50.3188 35.0981 50.0916C35.4389 50.2052 34.303 54.6351 34.303 56.9068C34.4166 61.9046 37.2562 69.8556 48.2741 67.1295C54.6349 65.5393 59.4055 62.8133 63.4945 60.0872C65.8799 61.4502 68.038 62.3589 69.7418 62.9268C76.1026 64.9714 79.7373 64.2899 80.4188 62.9268C80.646 61.791 78.8286 61.9046 70.1961 58.7242ZM57.1337 22.036C61.7908 20.105 64.5168 26.4658 63.1538 29.8734C61.7908 33.281 61.7908 32.9402 63.1538 33.1674C64.6304 33.3945 64.744 31.9179 67.9244 29.1919C71.1048 26.4658 74.8531 25.2164 78.1471 28.056C81.4411 30.8957 80.5324 35.7798 73.7173 43.8444C69.7418 48.5014 66.7885 51.0003 62.6994 54.2943C56.5658 49.6373 52.136 43.3901 51.4545 36.6885C50.6594 28.9647 52.5903 23.9669 57.1337 22.036ZM39.4144 35.3255C39.1872 38.1651 35.2117 45.321 31.8041 48.0471C28.3965 50.7732 24.1939 52.7041 25.2161 47.1384C26.352 40.5504 32.1449 34.4168 34.4166 33.1674C36.8019 32.0315 39.6415 32.5994 39.4144 35.3255ZM48.7284 62.2453C42.8219 63.4948 39.9823 57.9291 40.5502 51.6819C41.0046 46.7977 45.3208 37.37 46.4567 35.6663C46.4567 36.5749 46.5703 37.5972 46.6838 38.6195C47.8197 47.0248 53.1582 53.1585 58.6104 57.3611C54.7484 59.86 51.2273 61.6774 48.7284 62.2453Z" fill="white"/>
<path d="M25.8974 74.0583H22.9442V80.0784H20.8997V72.3546H25.8974V74.0583Z" fill="white"/>
<path d="M35.0987 76.2159C35.0987 77.3517 34.7579 78.374 33.9628 79.1691C33.1677 79.9642 32.1455 80.4186 30.896 80.4186C29.6466 80.4186 28.6243 79.9642 27.8292 79.1691C27.0341 78.374 26.6934 77.3517 26.6934 76.2159C26.6934 75.08 27.0341 74.0578 27.8292 73.2627C28.6243 72.4676 29.6466 72.0132 30.896 72.0132C32.1455 72.0132 33.1677 72.4676 33.9628 73.2627C34.7579 74.0578 35.0987 74.9664 35.0987 76.2159ZM32.9406 76.2159C32.9406 75.4208 32.7134 74.8529 32.3726 74.5121C32.0319 74.1713 31.5775 73.9442 30.896 73.9442C30.3281 73.9442 29.8738 74.1713 29.4194 74.5121C29.0787 74.9664 28.8515 75.5344 28.8515 76.2159C28.8515 77.011 29.0787 77.5789 29.4194 77.9197C29.7602 78.2604 30.2145 78.4876 30.896 78.4876C31.464 78.4876 31.9183 78.2604 32.3726 77.9197C32.7134 77.4653 32.9406 76.8974 32.9406 76.2159Z" fill="white"/>
<path d="M42.0272 74.0583H39.8691V80.0783H37.8245V74.0583H35.6664V72.2409H42.0272V74.0583Z" fill="white"/>
<path d="M51.0008 76.2159C51.0008 77.3517 50.66 78.374 49.8649 79.1691C49.0698 79.9642 48.0476 80.4186 46.7981 80.4186C45.5487 80.4186 44.5264 79.9642 43.7313 79.1691C42.9362 78.374 42.5955 77.3517 42.5955 76.2159C42.5955 75.08 42.9362 74.0578 43.7313 73.2627C44.5264 72.4676 45.5487 72.0132 46.7981 72.0132C48.0476 72.0132 49.0698 72.4676 49.8649 73.2627C50.66 74.0578 51.0008 74.9664 51.0008 76.2159ZM48.8427 76.2159C48.8427 75.4208 48.6155 74.8529 48.2747 74.5121C47.934 74.1713 47.4796 73.9442 46.7981 73.9442C46.2302 73.9442 45.7759 74.1713 45.3215 74.5121C44.9808 74.9664 44.7536 75.5344 44.7536 76.2159C44.7536 77.011 44.9808 77.5789 45.3215 77.9197C45.6623 78.2604 46.1166 78.4876 46.7981 78.4876C47.3661 78.4876 47.8204 78.2604 48.2747 77.9197C48.7291 77.4653 48.8427 76.8974 48.8427 76.2159Z" fill="white"/>
<path d="M59.0649 77.9202C59.0649 78.6018 58.8377 79.1697 58.3833 79.5104C57.929 79.8512 57.1339 80.0784 56.1116 80.0784H52.8176V72.3546H55.8844C57.7018 72.3546 58.6105 73.0361 58.6105 74.5127C58.6105 74.8534 58.4969 75.0806 58.3833 75.4214C58.1562 75.7621 57.929 75.9893 57.7018 76.1029C58.1562 76.2165 58.4969 76.4436 58.7241 76.898C58.9513 77.1251 59.0649 77.4659 59.0649 77.9202ZM56.6796 74.6263C56.6796 74.0583 56.4524 73.8312 55.7709 73.8312H54.7486V75.4214H55.6573C56.3388 75.4214 56.6796 75.1942 56.6796 74.6263ZM57.0203 77.5795C57.0203 77.0116 56.6795 76.7844 55.998 76.7844H54.8622V78.4882H55.998C56.6795 78.4882 57.0203 78.1474 57.0203 77.5795Z" fill="white"/>
<path d="M67.8115 80.0777H65.8805V75.875L60.9963 80.532V72.3538H63.0409V76.3293L67.9251 71.8995V80.0777H67.8115Z" fill="white"/>
<path d="M75.3073 74.0583H73.1492V80.0783H71.1047V74.0583H68.9465V72.2409H75.1937V74.0583H75.3073Z" fill="white"/>
<path d="M82.8051 77.5795C82.8051 79.1697 81.7828 80.0784 79.8518 80.0784H76.5579V72.3546H78.6024V75.1942H79.8518C80.8741 75.1942 81.6692 75.4214 82.1236 75.9893C82.5779 76.3301 82.8051 76.898 82.8051 77.5795ZM80.7605 77.5795C80.7605 77.3523 80.6469 77.1252 80.4198 77.0116C80.1926 76.7844 79.9654 76.6708 79.5111 76.6708H78.4888V78.4882H79.5111C80.3062 78.4882 80.7605 78.1474 80.7605 77.5795Z" fill="white"/>
</svg>
