<svg width="13" height="23" viewBox="0 0 13 23" fill="none" xmlns="http://www.w3.org/2000/svg">
<path d="M6.72209 0.310966C3.55913 0.310966 0.981897 2.8882 1.02095 6.05117C1.05999 9.21413 3.59818 11.7914 6.76114 11.7523C9.88506 11.7523 12.4623 9.21413 12.4623 6.05117C12.4623 2.8882 9.88506 0.310966 6.72209 0.310966ZM6.72209 8.43315C5.39443 8.43315 4.34011 7.37883 4.34011 6.05117C4.34011 4.7235 5.39443 3.66918 6.72209 3.66918C8.04976 3.66918 9.10408 4.7235 9.10408 6.05117C9.06503 7.33978 8.01071 8.43315 6.72209 8.43315Z" fill="white"/>
<path d="M8.75272 16.3207C10.1194 16.0864 11.369 15.5397 12.4624 14.7197C13.0872 14.134 13.0872 13.1187 12.5014 12.4939C11.9938 11.9472 11.1347 11.8691 10.5099 12.2987C9.33846 13.0406 7.97174 13.4701 6.60503 13.4311C5.23831 13.4701 3.8716 13.0406 2.70013 12.2987C1.99725 11.8301 1.02102 12.0253 0.552433 12.7282C0.122894 13.353 0.240041 14.173 0.747678 14.7197C1.8801 15.5397 3.20776 16.1255 4.61353 16.3598L1.33341 19.7961C0.747678 20.4209 0.747677 21.3971 1.37246 22.0219C1.6458 22.2952 2.03629 22.4514 2.46583 22.4514C2.89537 22.4514 3.28586 22.2952 3.59825 21.9828L6.64407 18.7418L10.0023 22.0219C10.6271 22.6466 11.6033 22.6466 12.2281 22.0219C12.8529 21.3971 12.8529 20.4209 12.2281 19.7961L8.75272 16.3207Z" fill="white"/>
</svg>
