<svg width="24" height="21" viewBox="0 0 24 21" fill="none" xmlns="http://www.w3.org/2000/svg">
<path d="M23.9847 3.12526C23.1196 3.53234 22.1528 3.73588 21.2369 3.88854C22.2546 3.27792 23.0178 2.36199 23.374 1.24252C22.4581 1.80225 21.3895 2.20933 20.3209 2.41287C19.405 1.44606 18.1329 0.886322 16.8099 0.886322C14.113 0.886322 11.9758 3.02349 11.9758 5.7204C11.9758 6.07659 12.0267 6.48367 12.0776 6.83987C8.21031 6.63633 4.59747 4.80447 2.15499 1.80225C0.882867 3.99031 1.49349 6.83987 3.63066 8.26465C2.86738 8.26465 2.10411 8.0611 1.4426 7.65402V7.70491C1.4426 9.99474 3.07092 11.9792 5.30986 12.4372C4.90278 12.539 4.44482 12.5899 4.03774 12.5899C3.73243 12.5899 3.42712 12.539 3.12181 12.539C3.78331 14.5235 5.56429 15.8465 7.65057 15.8974C5.92048 17.2204 3.8342 17.9328 1.64614 17.9328C1.28995 17.9328 0.882867 17.9328 0.526672 17.8819C2.71473 19.3067 5.30986 20.07 7.905 20.07C16.8099 20.07 21.6439 12.6916 21.6439 6.33102C21.6439 6.12748 21.6439 5.92394 21.6439 5.7204C22.5599 4.90624 23.374 4.04119 23.9847 3.12526Z" fill="white"/>
</svg>
