<svg width="27" height="17" viewBox="0 0 27 17" fill="none" xmlns="http://www.w3.org/2000/svg">
<path d="M25.916 1.80508C26.0687 1.19446 25.916 0.787378 25.051 0.787378H22.2014C21.6417 0.736493 21.1837 1.09269 20.9802 1.60154C20.9802 1.60154 19.5554 5.1126 17.4691 7.40243C16.8076 8.06393 16.5023 8.26747 16.1461 8.26747C15.9934 8.26747 15.6881 8.06393 15.6881 7.45331V1.80508C15.6881 1.09269 15.4846 0.787378 14.874 0.787378H10.447C10.0399 0.787378 9.73458 1.0418 9.6837 1.44888C9.6837 2.11039 10.7014 2.26304 10.8032 4.19667V8.36924C10.8032 9.28517 10.6505 9.43783 10.2434 9.43783C9.27662 9.43783 6.93591 5.92676 5.56201 1.85596C5.30759 1.09269 5.00228 0.736494 4.28989 0.736494H1.49121C0.677051 0.736494 0.473511 1.14357 0.473511 1.55065C0.473511 2.31393 1.44033 6.02853 4.95139 10.9644C7.2921 14.3737 10.5996 16.1546 13.6018 16.1546C15.4337 16.1546 15.6372 15.7476 15.6372 15.0352V12.4909C15.6372 11.6768 15.7899 11.4732 16.4005 11.4732C16.8076 11.4732 17.5709 11.6768 19.1992 13.3051C21.1328 15.2387 21.4381 16.1038 22.5576 16.1038H25.4072C26.2213 16.1038 26.6284 15.6967 26.374 14.8825C26.1196 14.0684 25.2036 12.9489 23.9824 11.575C23.3209 10.8117 22.3541 9.94668 22.0488 9.5396C21.6417 8.97986 21.7434 8.77632 22.0488 8.26747C22.0488 8.31836 25.5089 3.4334 25.916 1.80508Z" fill="white"/>
</svg>
