<svg width="214" height="185" viewBox="0 0 214 185" fill="none" xmlns="http://www.w3.org/2000/svg">
<path d="M173.405 32.6626C168.866 32.298 163.715 34.7147 159.536 37.1262C154.191 40.2141 149.656 44.0386 145.447 48.0555C129.583 63.28 119.959 80.8094 113.288 98.1383C109.3 108.513 106.284 118.882 103.84 129.169C102.913 133.178 102.089 137.142 101.428 141.202C100.65 129.388 101.089 117.295 102.876 104.948C105.589 86.0782 112.799 66.9209 116.186 47.9245C116.928 43.4934 117.568 39.107 117.738 34.7582C117.929 31.5735 117.527 28.1449 115.102 25.935C109.014 20.6308 99.1961 28.5218 95.255 34.2659C89.5374 42.6296 87.051 51.4263 85.5151 59.8919C83.8163 69.0991 82.6185 78.339 81.9624 87.4261C81.0236 100.325 81.2604 113.129 83.5313 125.296C81.9944 121.777 80.6619 118.168 79.5646 114.54C77.0011 106.44 75.388 98.0079 74.5211 89.3343C73.685 80.731 73.5949 71.8859 72.3192 63.3907C71.9903 61.5228 71.6614 59.6548 71.2303 57.8314C70.8607 56.1489 70.7769 54.0063 69.5897 52.6807C67.7063 50.3181 63.6184 52.103 61.0235 54.2419C54.8017 59.2216 52.6096 65.6268 52.114 71.4589C51.4671 79.4524 53.5089 87.1939 56.0102 94.3158C58.8396 102.468 62.8647 110.014 67.227 117.496C72.7567 126.816 78.45 136.232 85.3796 144.857C79.784 141.517 74.9138 137.609 70.6667 133.177C60.4328 122.558 53.6937 109.911 44.5226 98.6612C42.2196 95.8951 39.9166 93.129 37.2356 90.6117C35.3937 88.9015 32.2739 87.3301 28.6156 89.2628C25.1308 91.0358 24.9503 94.8026 24.5846 97.3091C24.1482 100.768 24.4887 104.056 25.3401 107.121C28.8389 120.429 41.7814 130.283 54.65 137.74C62.3426 142.259 70.975 145.866 79.9954 148.968C84.5567 150.496 97.6713 158.516 100.004 160.515C100.066 160.655 101.519 162.033 102.847 161.452C106.424 159.891 106.023 157.3 106.339 156.072C107.763 148.745 112.102 141.403 117.166 134.33C123.681 125.283 131.524 116.494 138.601 107.62C146.169 98.1977 153.501 88.7938 160.372 79.1719C166.785 70.1696 173.309 60.8669 177.39 51.5416C180.114 45.2394 183.62 33.4829 173.405 32.6626Z" fill="#F440BC"/>
<path d="M162.029 46.1795C166.155 41.6957 170.547 37.2634 175.103 32.9272C174.837 32.8757 174.438 32.7984 174.172 32.7468C143.283 62.3273 120.893 96.3264 109.924 130.284C106.692 140.161 104.534 149.988 103.285 159.669C103.091 159.502 102.927 159.406 102.733 159.239C97.9256 146 94.5797 132.207 93.8403 117.694C92.7066 96.9835 93.1773 75.4887 98.1463 53.7061C100.397 44.0903 103.455 34.3734 107.382 24.6961C106.943 24.8042 106.534 24.9827 106.227 25.1166C98.7301 43.8961 94.239 62.8718 92.9884 81.1869C92.2217 92.2501 92.1911 103.327 92.5386 114.155C92.8553 124.913 94.3577 135.321 97.0458 145.379C98.1846 149.659 99.4971 153.779 100.943 157.926C81.075 133.326 67.9616 104.687 62.5446 73.6098C61.4142 67.3981 60.7233 61.0783 60.1653 54.7843C59.818 55.1036 59.4707 55.4228 59.1234 55.7421C61.8956 90.2373 73.499 122.385 93.349 150.01C94.9051 152.18 96.5634 154.306 98.2216 156.432C97.0144 155.618 95.8072 154.804 94.5286 154.105C87.1426 149.451 79.0927 145.507 70.6954 141.881C61.8686 138.108 55.719 132.663 49.9366 126.387C44.3279 119.952 39.1687 113.152 34.8985 105.881C31.98 100.869 29.3374 95.653 27.1035 90.2584C26.7562 90.5777 26.5111 90.8523 26.2659 91.127C31.2254 103.043 38.1267 114.11 46.7753 124.164C51.9337 130.125 57.4195 136.279 65.1628 140.358C69.0702 142.339 73.4271 143.957 77.406 145.824C81.5178 147.716 85.4867 149.839 89.2511 152.051C93.0463 154.333 96.7394 156.66 100.33 159.031C100.873 159.716 101.446 160.472 102.091 161.112C102.152 161.253 102.244 161.464 102.306 161.605C102.541 161.586 102.643 161.542 102.848 161.452C103.461 161.185 104.043 160.846 104.493 160.483C104.36 160.457 104.298 160.316 104.165 160.29C108.71 121.93 129.406 81.5455 162.029 46.1795Z" fill="#161940"/>
<path d="M178.809 49.497C170.994 55.8432 162.411 61.2672 153.5 66.499C143.905 72.1135 134.044 77.6764 124.224 83.054C120.494 85.1016 116.836 87.0343 113.106 89.082C108.147 88.3139 103.33 87.3158 98.626 86.0172C92.398 84.2944 85.7404 82.4238 81.6371 78.5999C81.2482 78.2667 80.2877 78.8538 80.7073 79.2573C84.5548 82.7739 90.3432 84.6048 95.9373 86.2692C100.969 87.7601 106.246 88.9764 111.737 89.8475C96.3878 97.8906 80.6908 105.415 64.4098 111.602C53.5661 115.75 42.0169 119.955 31.0264 120.144C30.321 120.201 30.0559 120.987 30.792 121.001C39.8401 120.822 49.0287 117.899 58.0943 114.695C68.8566 110.918 79.5466 106.418 89.9501 101.54C97.7271 97.8925 105.514 93.9894 113.137 89.9902C113.771 90.0487 114.303 90.1518 114.968 90.2806C127.923 92.0833 141.685 92.1092 155.843 90.5368C156.549 90.4802 156.783 89.6236 156.078 89.6801C142.256 91.1891 128.863 91.1701 116.204 89.4893C115.57 89.4309 115.038 89.3278 114.405 89.2693C126.166 83.0439 137.673 76.5112 149.179 69.9784C159.796 63.9177 170.157 57.5496 179.321 50.1117C179.944 49.5882 179.33 49.0181 178.809 49.497Z" fill="#161940"/>
<path d="M33.9728 121.875C34.0543 121.504 34.105 121.063 34.1864 120.692C34.1964 120.436 34.0327 120.34 33.7669 120.289C33.3988 120.282 32.7341 120.153 32.2231 120.376C31.998 120.139 31.3233 120.266 31.2726 120.707C31.079 121.379 30.7117 122.209 30.651 122.906C30.5596 123.533 31.3364 123.362 31.9396 123.35C32.5121 123.267 33.4119 123.377 33.7692 122.802C34.0143 122.528 33.9628 122.131 33.9728 121.875Z" fill="#161940"/>
<path d="M91.096 102.213C90.9423 101.861 90.7887 101.509 90.5635 101.272C90.4713 101.061 90.2054 101.009 89.8988 101.143C89.49 101.322 88.8154 101.449 88.3351 101.742C88.0385 101.62 87.3539 102.003 87.5076 102.355C87.7842 102.988 87.8564 103.711 88.2045 104.23C88.5526 104.748 89.2373 104.366 89.8505 104.098C90.3615 103.875 91.4449 103.569 91.4649 103.058C91.3419 102.776 91.219 102.494 91.096 102.213Z" fill="#161940"/>
<path d="M89.6967 103.746C82.4406 106.914 85.8525 114.728 93.1086 111.56C100.365 108.391 96.9528 100.578 89.6967 103.746Z" fill="#0E4598"/>
<path d="M103.731 89.9066C104.048 89.5169 104.262 89.1719 104.548 88.7118C104.691 88.4818 104.599 88.2706 104.435 88.1744C104.139 88.0525 103.648 87.764 103.147 87.7313C103.126 87.4051 102.492 87.3466 102.175 87.7363C101.614 88.4007 100.95 89.1096 100.521 89.7997C100.092 90.4898 100.828 90.5037 101.391 90.6771C101.82 90.8249 102.577 91.1649 103.129 90.7564C103.303 90.5967 103.517 90.2517 103.731 89.9066Z" fill="#161940"/>
<path d="M101.534 90.4474C95.1732 88.6988 88.6994 97.5603 95.1626 99.2643C101.524 101.013 107.997 92.1514 101.534 90.4474Z" fill="#0E4598"/>
<path d="M125.358 92.6169C125.542 92.2014 125.623 91.8306 125.807 91.4151C125.817 91.1593 125.755 91.0185 125.489 90.967C125.09 90.8897 124.528 90.7162 123.986 90.8689C123.863 90.5874 123.158 90.6439 122.974 91.0594C122.678 91.7753 122.178 92.5804 121.985 93.2516C121.791 93.9229 122.496 93.8663 123.202 93.8098C123.703 93.8425 124.633 94.0228 125.021 93.5182C125.164 93.2881 125.215 92.8469 125.358 92.6169Z" fill="#161940"/>
<path d="M123.212 93.5547C115.953 93.3717 112.444 102.615 119.703 102.798C126.932 102.91 130.471 93.7377 123.212 93.5547Z" fill="#0E4598"/>
<path d="M151.704 91.9251C151.786 91.5543 151.734 91.1577 151.816 90.7869C151.826 90.5311 151.662 90.4349 151.294 90.428C150.926 90.4211 150.19 90.4072 149.781 90.5857C149.556 90.3488 148.912 90.5461 148.728 90.9616C148.565 91.7032 148.3 92.4895 148.24 93.1866C148.25 93.7686 148.925 93.6416 149.6 93.5147C150.172 93.4324 151.143 93.4273 151.399 92.8969C151.746 92.5776 151.694 92.181 151.704 91.9251Z" fill="#161940"/>
<path d="M149.783 93.0993C142.208 94.1438 141.051 103.198 148.626 102.154C156.201 101.109 157.358 92.0548 149.783 93.0993Z" fill="#0E4598"/>
<path d="M131.093 81.2279C130.838 80.9205 130.51 80.7282 130.152 80.4655C129.958 80.2989 129.723 80.3177 129.447 80.522C129.069 80.7709 128.353 81.0833 128.139 81.4283C127.771 81.4214 127.25 81.9003 127.506 82.2077C127.956 82.6816 128.366 83.3409 128.918 83.7702C129.44 84.1291 129.961 83.6502 130.513 83.2416C130.962 82.8777 131.953 82.3611 131.769 81.9387C131.646 81.6571 131.319 81.4648 131.093 81.2279Z" fill="#161940"/>
<path d="M130.358 82.89C124.054 87.4027 130.685 93.3919 136.989 88.8792C143.191 84.4111 136.662 78.3773 130.358 82.89Z" fill="#0E4598"/>
<path d="M85.302 83.3698C85.6186 82.9801 85.833 82.635 86.1495 82.2454C86.2925 82.0153 86.2002 81.8041 86.0366 81.708C85.74 81.586 85.2182 81.2272 84.8501 81.2202C84.8294 80.894 84.1955 80.8356 83.8789 81.2253C83.3172 81.8896 82.6225 82.5282 82.0916 83.2629C81.6321 83.8826 82.2968 84.0115 82.8592 84.1849C83.2888 84.3327 84.0764 84.7431 84.5974 84.2642C84.8425 83.9895 85.1591 83.5998 85.302 83.3698Z" fill="#161940"/>
<path d="M83.1448 83.7249C76.9268 81.7462 70.1258 90.4154 76.3438 92.394C82.5925 94.443 89.3628 85.7035 83.1448 83.7249Z" fill="#0E4598"/>
<path d="M61.4785 114.642C61.427 114.246 61.3041 113.964 61.1504 113.612C61.0582 113.401 60.8945 113.305 60.5572 113.368C60.1176 113.476 59.4122 113.533 59.0342 113.782C58.7376 113.66 58.1244 113.928 58.1759 114.324C58.2174 114.977 58.1874 115.744 58.464 116.378C58.6077 116.985 59.4253 116.628 60.0385 116.361C60.5803 116.208 61.5923 116.017 61.7144 115.461C61.7551 115.276 61.6015 114.924 61.4785 114.642Z" fill="#161940"/>
<path d="M58.6477 115.962C51.5453 119.482 55.6419 126.913 62.7442 123.393C69.9795 119.899 65.883 112.468 58.6477 115.962Z" fill="#0E4598"/>
<path d="M29.1586 123.39C21.9025 126.559 25.3144 134.373 32.5704 131.204C39.9287 127.991 36.5168 120.177 29.1586 123.39Z" fill="#0E4598"/>
</svg>
