<svg width="282" height="158" viewBox="0 0 282 158" fill="none" xmlns="http://www.w3.org/2000/svg">
<path d="M36.4945 151.508C38.2264 147.807 37.6079 142.81 37.6697 138.8C37.7934 134.359 37.8553 129.855 37.979 125.414C38.0408 121.034 38.1645 116.715 38.3501 112.336C38.5357 107.709 39.7108 102.033 37.4842 97.7769C36.742 96.358 35.6905 95.1859 34.3916 96.8515C31.4846 100.615 32.9071 107.585 32.9071 112.15C32.969 116.407 32.9071 120.664 32.8453 124.92C32.7834 129.177 32.7216 133.433 32.7216 137.69C32.6597 141.823 31.9175 146.82 33.402 150.706C34.0205 152.372 35.4431 153.729 36.4945 151.508Z" fill="#76AA4E"/>
<path d="M1.54861 97.0992C19.0526 103.391 38.4739 93.0277 53.1327 84.1445C74.5952 71.1898 93.9547 55.0272 113.376 39.2965C118.757 34.9166 124.2 30.475 129.643 26.1567C134.529 22.2703 139.91 19.0625 144.92 15.3611C144.487 15.3611 143.992 15.3611 143.56 15.4228C160.198 30.5983 176.217 46.5141 193.783 60.6409C209.431 73.2872 226.75 84.8847 246.48 89.8815C257.304 92.5959 268.499 92.966 279.385 90.6835C283.591 89.8199 282.169 75.0145 279.014 75.6931C236.831 84.4529 200.772 52.7447 172.073 26.3418C162.857 17.8904 153.889 9.31559 144.611 0.987567C144.116 0.617432 143.683 0.679121 143.25 1.04926C138.611 4.56553 134.467 8.63701 130.014 12.4001C125.375 16.3482 120.613 20.1112 115.912 23.9359C106.078 32.0172 96.305 40.1601 86.2851 48.0563C68.5956 62.1215 49.7927 76.6801 28.454 84.7614C20.1659 87.9075 10.6408 89.9432 1.85787 87.7224C-0.368783 87.2289 -0.739892 96.2355 1.54861 97.0992Z" fill="#76AA4E"/>
<path d="M258.046 155.395C259.345 147.622 259.283 139.602 259.593 131.768C259.964 123.625 260.52 115.42 260.644 107.277C260.644 105.797 259.345 98.5173 256.748 101.848C256.562 102.095 256.315 102.404 256.129 102.65C254.459 104.81 254.521 111.102 256.933 112.891C257.181 113.076 257.428 113.261 257.675 113.446C257.057 110.855 256.376 108.264 255.758 105.673C255.263 113.693 255.263 121.836 254.954 129.917C254.706 138.06 254.088 146.326 254.706 154.408C254.892 157.06 257.366 159.219 258.046 155.395Z" fill="#76AA4E"/>
<path d="M122.097 112.521C118.695 115.852 116.159 120.047 112.881 123.501C109.356 127.141 105.397 130.349 100.882 132.631C91.9136 137.196 80.7803 138.122 71.6263 133.372C65.4412 130.164 58.3901 123.254 60.7404 115.79C63.3382 107.4 73.3581 102.897 81.5844 105.18C83.9347 105.858 86.2851 107.154 87.8932 108.943C88.4499 109.56 89.0066 111.04 89.6251 111.41C89.9343 111.595 89.4395 112.829 89.7488 110.978C90.1199 108.881 89.6251 110.855 89.5632 110.917C88.0169 112.582 87.0273 114.001 84.4914 114.125C82.5122 114.248 80.0381 113.508 78.8011 111.904C77.4403 110.176 76.1415 112.089 75.7085 113.446C74.9663 115.79 75.1518 118.566 76.0796 120.849C78.3681 126.339 84.8007 129.177 89.8725 125.105C95.3154 120.725 96.1195 112.212 94.5113 105.92C91.2332 92.9035 76.3889 87.9066 65.2556 94.8775C53.3183 102.342 52.0812 120.17 57.0294 132.076C62.163 144.476 75.5848 151.508 88.6973 149.843C96.5524 148.794 103.851 145.216 109.851 140.096C115.788 134.975 121.417 128.19 124.447 120.91C125.19 119.121 125.19 116.654 124.633 114.865C124.447 114.063 123.272 111.349 122.097 112.521Z" fill="#76AA4E"/>
<path d="M172.877 120.91C178.258 133.433 190.257 144.969 203.432 148.67C216.235 152.248 230.585 148.239 237.945 136.641C244.872 125.722 244.996 108.264 235.966 98.3937C227.554 89.2638 211.411 88.9553 204.731 100.306C200.772 107.03 200.71 117.887 206.339 123.81C211.349 129.053 218.647 126.956 221.307 120.602C222.235 118.381 222.173 115.42 221.307 113.199C220.75 111.78 219.513 110.053 218.152 111.842C215.926 114.68 210.668 114.741 208.318 112.089C208.132 111.904 207.761 111.102 207.576 111.04C207.143 110.855 207.947 110.546 207.514 111.163C207.267 111.472 207.514 112.089 207.514 112.089C207.514 112.089 207.885 111.163 207.885 111.102C208.875 109.128 210.792 107.585 212.709 106.475C220.07 102.342 230.77 105.18 235.162 112.335C239.429 119.306 234.914 126.771 228.791 131.151C220.75 137.011 210.05 137.875 200.772 134.605C195.329 132.693 190.319 129.547 186.175 125.537C182.155 121.651 179.31 116.839 175.413 112.952C174.052 111.595 173.124 112.891 172.63 114.31C171.826 116.407 172.011 118.936 172.877 120.91Z" fill="#76AA4E"/>
<path d="M180 76C180 97.5412 162.765 115 141.5 115C120.235 115 103 97.5412 103 76C103 54.4588 120.235 37 141.5 37C162.765 37 180 54.4588 180 76Z" fill="#111C4E"/>
<path d="M152.39 59.323C152.39 59.323 151.361 50.2027 146.388 51.853C141.414 53.5034 139.528 59.4967 139.528 63.3185C139.528 67.1403 147.074 77.3898 147.845 78.3452C148.531 79.2138 151.018 80.6904 151.018 80.6904C151.018 80.6904 157.706 74.9577 160.707 70.8753C163.708 66.7929 166.538 63.0579 164.566 60.1916C162.594 57.3252 161.05 55.3274 158.907 56.1092C156.763 56.804 153.59 58.8018 153.59 58.8018L152.39 59.323Z" fill="#76BC21"/>
<path d="M155.991 81.9065C155.22 81.646 154.448 81.2985 153.676 80.8642C156.506 78.6059 158.735 76.2607 160.879 73.9154C165.766 68.5301 169.968 61.4077 165.338 56.6304C160.793 51.8531 156.334 55.2406 154.791 56.1092C153.247 57.0647 153.762 54.8063 153.333 53.2428C152.733 51.5057 151.104 49.5947 147.074 49.5079C143.387 49.421 137.985 54.1983 138.07 63.2317C137.642 62.6237 136.956 61.9288 136.613 61.4945C136.184 60.7996 134.984 61.5814 134.984 61.5814C134.984 61.5814 135.327 61.1471 133.955 59.2362C132.668 57.3253 126.838 57.6727 122.722 62.2763C118.606 66.8798 117.063 76.4344 121.35 77.3898C123.751 77.911 126.752 76.4344 127.352 75.8264C126.237 77.1293 121.35 82.6883 119.206 83.5569C116.805 84.5123 117.406 82.0803 117.577 80.9511C117.749 79.8219 116.891 79.7351 116.034 80.1693C116.034 80.1693 114.662 81.2117 113.804 81.8197C112.947 82.5146 112.432 83.2094 112.518 84.078C112.604 84.9466 113.204 89.2028 118.349 87.9867C123.322 86.8575 130.268 75.4789 129.496 75.3052C129.753 75.3921 128.896 78.7796 128.896 80.5168C128.981 84.3386 131.125 90.4188 139.442 88.3342C144.244 87.1181 147.845 85.0335 150.932 82.9489C152.733 83.9912 154.362 84.6861 155.648 85.1203C160.45 86.6838 163.194 86.1627 163.709 85.1203C163.88 84.2518 162.508 84.3386 155.991 81.9065ZM146.131 53.8509C149.646 52.3742 151.704 57.2384 150.675 59.8442C149.646 62.45 149.646 62.1894 150.675 62.3631C151.79 62.5368 151.876 61.4077 154.276 59.323C156.677 57.2384 159.507 56.2829 161.994 58.4544C164.48 60.6259 163.794 64.3609 158.649 70.5279C155.648 74.0892 153.419 76.0001 150.332 78.519C145.702 74.9578 142.358 70.1805 141.843 65.0558C141.243 59.1493 142.701 55.3275 146.131 53.8509ZM132.754 64.0134C132.583 66.1849 129.582 71.6571 127.009 73.7417C124.437 75.8264 121.264 77.303 122.036 73.0469C122.893 68.009 127.266 63.3186 128.981 62.3631C130.782 61.4945 132.926 61.9288 132.754 64.0134ZM139.785 84.5992C135.327 85.5546 133.183 81.2985 133.612 76.5212C133.955 72.7863 137.213 65.5769 138.07 64.274C138.07 64.9689 138.156 65.7506 138.242 66.5324C139.099 72.96 143.129 77.6504 147.245 80.8642C144.33 82.7751 141.672 84.1649 139.785 84.5992Z" fill="white"/>
<path d="M122.55 93.6325H120.321V98.236H118.777V92.3296H122.55V93.6325Z" fill="white"/>
<path d="M129.496 95.2829C129.496 96.1515 129.239 96.9332 128.638 97.5413C128.038 98.1493 127.266 98.4967 126.323 98.4967C125.38 98.4967 124.608 98.1493 124.008 97.5413C123.408 96.9332 123.151 96.1515 123.151 95.2829C123.151 94.4143 123.408 93.6326 124.008 93.0245C124.608 92.4165 125.38 92.0691 126.323 92.0691C127.266 92.0691 128.038 92.4165 128.638 93.0245C129.239 93.6326 129.496 94.3274 129.496 95.2829ZM127.867 95.2829C127.867 94.6749 127.695 94.2406 127.438 93.98C127.181 93.7194 126.838 93.5457 126.323 93.5457C125.895 93.5457 125.552 93.7194 125.209 93.98C124.951 94.3274 124.78 94.7617 124.78 95.2829C124.78 95.8909 124.951 96.3252 125.209 96.5858C125.466 96.8464 125.809 97.0201 126.323 97.0201C126.752 97.0201 127.095 96.8464 127.438 96.5858C127.695 96.2384 127.867 95.8041 127.867 95.2829Z" fill="white"/>
<path d="M134.726 93.6324H133.097V98.236H131.554V93.6324H129.925V92.2427H134.726V93.6324Z" fill="white"/>
<path d="M141.5 95.2829C141.5 96.1515 141.243 96.9332 140.643 97.5413C140.043 98.1493 139.271 98.4967 138.328 98.4967C137.384 98.4967 136.613 98.1493 136.012 97.5413C135.412 96.9332 135.155 96.1515 135.155 95.2829C135.155 94.4143 135.412 93.6326 136.012 93.0245C136.613 92.4165 137.384 92.0691 138.328 92.0691C139.271 92.0691 140.043 92.4165 140.643 93.0245C141.243 93.6326 141.5 94.3274 141.5 95.2829ZM139.871 95.2829C139.871 94.6749 139.7 94.2406 139.442 93.98C139.185 93.7194 138.842 93.5457 138.328 93.5457C137.899 93.5457 137.556 93.7194 137.213 93.98C136.956 94.3274 136.784 94.7617 136.784 95.2829C136.784 95.8909 136.956 96.3252 137.213 96.5858C137.47 96.8464 137.813 97.0201 138.328 97.0201C138.756 97.0201 139.099 96.8464 139.442 96.5858C139.785 96.2384 139.871 95.8041 139.871 95.2829Z" fill="white"/>
<path d="M147.588 96.5857C147.588 97.1069 147.417 97.5412 147.074 97.8017C146.731 98.0623 146.13 98.236 145.359 98.236H142.872V92.3296H145.187C146.559 92.3296 147.245 92.8507 147.245 93.9799C147.245 94.2405 147.159 94.4142 147.074 94.6748C146.902 94.9354 146.731 95.1091 146.559 95.196C146.902 95.2828 147.159 95.4565 147.331 95.804C147.502 95.9777 147.588 96.2383 147.588 96.5857ZM145.787 94.0668C145.787 93.6325 145.616 93.4588 145.101 93.4588H144.33V94.6748H145.016C145.53 94.6748 145.787 94.5011 145.787 94.0668ZM146.045 96.3251C146.045 95.8908 145.787 95.7171 145.273 95.7171H144.416V97.02H145.273C145.787 97.02 146.045 96.7594 146.045 96.3251Z" fill="white"/>
<path d="M154.19 98.2361H152.733V95.0223L149.046 98.5835V92.3296H150.589V95.3697L154.276 91.9822V98.2361H154.19Z" fill="white"/>
<path d="M159.85 93.6324H158.22V98.236H156.677V93.6324H155.048V92.2427H159.764V93.6324H159.85Z" fill="white"/>
<path d="M165.509 96.3251C165.509 97.5412 164.738 98.236 163.28 98.236H160.793V92.3296H162.337V94.5011H163.28C164.052 94.5011 164.652 94.6748 164.995 95.1091C165.338 95.3697 165.509 95.804 165.509 96.3251ZM163.966 96.3251C163.966 96.1514 163.88 95.9777 163.709 95.8908C163.537 95.7171 163.366 95.6303 163.023 95.6303H162.251V97.02H163.023C163.623 97.02 163.966 96.7594 163.966 96.3251Z" fill="white"/>
</svg>
