<svg width="77" height="78" viewBox="0 0 77 78" fill="none" xmlns="http://www.w3.org/2000/svg">
<path d="M76 39C76 60.0011 59.2006 77 38.5 77C17.7994 77 1 60.0011 1 39C1 17.9989 17.7994 1 38.5 1C59.2006 1 76 17.9989 76 39Z" fill="#111C4E" stroke="white" stroke-width="2"/>
<path d="M49.39 22.3229C49.39 22.3229 48.361 13.2026 43.3878 14.853C38.4145 16.5033 36.5281 22.4966 36.5281 26.3184C36.5281 30.1403 44.0737 40.3897 44.8454 41.3452C45.5314 42.2138 48.0181 43.6904 48.0181 43.6904C48.0181 43.6904 54.7063 37.9576 57.7074 33.8752C60.7085 29.7928 63.5381 26.0579 61.5659 23.1915C59.5938 20.3251 58.0503 18.3273 55.9067 19.1091C53.763 19.804 50.5904 21.8017 50.5904 21.8017L49.39 22.3229Z" fill="#76BC21"/>
<path d="M52.9914 44.9064C52.2196 44.6458 51.4479 44.2984 50.6762 43.8641C53.5058 41.6058 55.7352 39.2605 57.8789 36.9153C62.7664 31.53 66.968 24.4075 62.3377 19.6303C57.7931 14.853 53.3343 18.2405 51.7909 19.1091C50.2475 20.0645 50.762 17.8062 50.3332 16.2427C49.733 14.5055 48.1038 12.5946 44.0738 12.5078C40.3867 12.4209 34.9847 17.1982 35.0704 26.2316C34.6417 25.6236 33.9557 24.9287 33.6127 24.4944C33.184 23.7995 31.9836 24.5813 31.9836 24.5813C31.9836 24.5813 32.3265 24.147 30.9546 22.236C29.6684 20.3251 23.8377 20.6726 19.7219 25.2761C15.606 29.8797 14.0626 39.4343 18.3499 40.3897C20.7508 40.9109 23.7519 39.4343 24.3521 38.8262C23.2374 40.1291 18.3499 45.6882 16.2063 46.5568C13.8054 47.5122 14.4056 45.0801 14.5771 43.951C14.7486 42.8218 13.8911 42.7349 13.0337 43.1692C13.0337 43.1692 11.6617 44.2115 10.8043 44.8196C9.9468 45.5144 9.43233 46.2093 9.51807 47.0779C9.60382 47.9465 10.204 52.2026 15.3488 50.9866C20.3221 49.8574 27.2675 38.4788 26.4958 38.3051C26.753 38.3919 25.8956 41.7795 25.8956 43.5167C25.9813 47.3385 28.125 53.4187 36.4424 51.334C41.2441 50.118 44.8455 48.0334 47.9323 45.9487C49.733 46.9911 51.3622 47.6859 52.6484 48.1202C57.4502 49.6837 60.194 49.1625 60.7085 48.1202C60.88 47.2516 59.5081 47.3385 52.9914 44.9064ZM43.1306 16.8507C46.6461 15.3741 48.704 20.2383 47.6751 22.8441C46.6461 25.4498 46.6461 25.1893 47.6751 25.363C48.7898 25.5367 48.8755 24.4075 51.2764 22.3229C53.6773 20.2383 56.5069 19.2828 58.9936 21.4543C61.4802 23.6258 60.7943 27.3608 55.6495 33.5278C52.6484 37.089 50.419 39 47.3321 41.5189C42.7018 37.9576 39.3577 33.1804 38.8432 28.0556C38.243 22.1492 39.7007 18.3274 43.1306 16.8507ZM29.7542 27.0133C29.5827 29.1848 26.5815 34.657 24.0092 36.7416C21.4368 38.8262 18.2642 40.3029 19.0359 36.0467C19.8934 31.0089 24.2664 26.3184 25.9813 25.363C27.782 24.4944 29.9256 24.9287 29.7542 27.0133ZM36.7853 47.5991C32.3265 48.5545 30.1829 44.2984 30.6116 39.5211C30.9546 35.7861 34.213 28.5768 35.0704 27.2739C35.0704 27.9688 35.1562 28.7505 35.2419 29.5323C36.0994 35.9599 40.1294 40.6503 44.2452 43.8641C41.3299 45.775 38.6718 47.1648 36.7853 47.5991Z" fill="white"/>
<path d="M19.5502 56.6325H17.3208V61.236H15.7773V55.3296H19.5502V56.6325Z" fill="white"/>
<path d="M26.4958 58.2829C26.4958 59.1515 26.2386 59.9332 25.6384 60.5413C25.0382 61.1493 24.2664 61.4967 23.3232 61.4967C22.38 61.4967 21.6083 61.1493 21.0081 60.5413C20.4079 59.9332 20.1506 59.1515 20.1506 58.2829C20.1506 57.4143 20.4079 56.6326 21.0081 56.0245C21.6083 55.4165 22.38 55.0691 23.3232 55.0691C24.2664 55.0691 25.0382 55.4165 25.6384 56.0245C26.2386 56.6326 26.4958 57.3274 26.4958 58.2829ZM24.8667 58.2829C24.8667 57.6749 24.6952 57.2406 24.4379 56.98C24.1807 56.7194 23.8377 56.5457 23.3232 56.5457C22.8945 56.5457 22.5515 56.7194 22.2085 56.98C21.9513 57.3274 21.7798 57.7617 21.7798 58.2829C21.7798 58.8909 21.9513 59.3252 22.2085 59.5858C22.4658 59.8464 22.8088 60.0201 23.3232 60.0201C23.752 60.0201 24.095 59.8464 24.4379 59.5858C24.6952 59.2384 24.8667 58.8041 24.8667 58.2829Z" fill="white"/>
<path d="M31.7263 56.6324H30.0972V61.236H28.5537V56.6324H26.9246V55.2427H31.7263V56.6324Z" fill="white"/>
<path d="M38.5002 58.2829C38.5002 59.1515 38.243 59.9332 37.6428 60.5413C37.0426 61.1493 36.2708 61.4967 35.3276 61.4967C34.3844 61.4967 33.6127 61.1493 33.0125 60.5413C32.4123 59.9332 32.155 59.1515 32.155 58.2829C32.155 57.4143 32.4123 56.6326 33.0125 56.0245C33.6127 55.4165 34.3844 55.0691 35.3276 55.0691C36.2708 55.0691 37.0426 55.4165 37.6428 56.0245C38.243 56.6326 38.5002 57.3274 38.5002 58.2829ZM36.8711 58.2829C36.8711 57.6749 36.6996 57.2406 36.4423 56.98C36.1851 56.7194 35.8421 56.5457 35.3276 56.5457C34.8989 56.5457 34.5559 56.7194 34.2129 56.98C33.9557 57.3274 33.7842 57.7617 33.7842 58.2829C33.7842 58.8909 33.9557 59.3252 34.2129 59.5858C34.4702 59.8464 34.8132 60.0201 35.3276 60.0201C35.7564 60.0201 36.0994 59.8464 36.4423 59.5858C36.7853 59.2384 36.8711 58.8041 36.8711 58.2829Z" fill="white"/>
<path d="M44.5881 59.5857C44.5881 60.1069 44.4166 60.5412 44.0736 60.8017C43.7307 61.0623 43.1304 61.236 42.3587 61.236H39.8721V55.3296H42.1872C43.5592 55.3296 44.2451 55.8507 44.2451 56.9799C44.2451 57.2405 44.1594 57.4142 44.0736 57.6748C43.9021 57.9354 43.7306 58.1091 43.5592 58.196C43.9021 58.2828 44.1594 58.4565 44.3309 58.804C44.5024 58.9777 44.5881 59.2383 44.5881 59.5857ZM42.7874 57.0668C42.7874 56.6325 42.6159 56.4588 42.1015 56.4588H41.3298V57.6748H42.0157C42.5302 57.6748 42.7874 57.5011 42.7874 57.0668ZM43.0447 59.3251C43.0447 58.8908 42.7874 58.7171 42.273 58.7171H41.4155V60.02H42.273C42.7874 60.02 43.0447 59.7594 43.0447 59.3251Z" fill="white"/>
<path d="M51.1904 61.2361H49.7327V58.0223L46.0457 61.5835V55.3296H47.5891V58.3697L51.2762 54.9822V61.2361H51.1904Z" fill="white"/>
<path d="M56.8496 56.6324H55.2205V61.236H53.677V56.6324H52.0479V55.2427H56.7639V56.6324H56.8496Z" fill="white"/>
<path d="M62.509 59.3251C62.509 60.5412 61.7373 61.236 60.2796 61.236H57.793V55.3296H59.3364V57.5011H60.2796C61.0513 57.5011 61.6515 57.6748 61.9945 58.1091C62.3375 58.3697 62.509 58.804 62.509 59.3251ZM60.9656 59.3251C60.9656 59.1514 60.8798 58.9777 60.7083 58.8908C60.5368 58.7171 60.3654 58.6303 60.0224 58.6303H59.2507V60.02H60.0224C60.6226 60.02 60.9656 59.7594 60.9656 59.3251Z" fill="white"/>
</svg>
